<?xml version="1.0" encoding="UTF-8" standalone="no"?>
<!-- Created with Inkscape (http://www.inkscape.org/) -->

<svg
   version="1.1"
   id="svg1"
   width="2129.3333"
   height="1744"
   viewBox="0 0 2129.3333 1744"
   sodipodi:docname="logo_white.png"
   inkscape:export-filename="../../../../../../../../tmp/logo_white.svg"
   inkscape:export-xdpi="96"
   inkscape:export-ydpi="96"
   xmlns:inkscape="http://www.inkscape.org/namespaces/inkscape"
   xmlns:sodipodi="http://sodipodi.sourceforge.net/DTD/sodipodi-0.dtd"
   xmlns="http://www.w3.org/2000/svg"
   xmlns:svg="http://www.w3.org/2000/svg">
  <defs
     id="defs1" />
  <sodipodi:namedview
     id="namedview1"
     pagecolor="#ffffff"
     bordercolor="#000000"
     borderopacity="0.25"
     inkscape:showpageshadow="2"
     inkscape:pageopacity="0.0"
     inkscape:pagecheckerboard="0"
     inkscape:deskcolor="#d1d1d1" />
  <g
     inkscape:groupmode="layer"
     inkscape:label="Image"
     id="g1">
    <rect
       style="fill:#ffffff;fill-opacity:1"
       id="rect2"
       width="257.76746"
       height="1048.8267"
       x="638.96503"
       y="459.33347" />
    <path
       style="fill:#ffffff;fill-opacity:1"
       d="m 740.27716,217.86294 c -0.69644,237.84587 -0.69644,237.84587 -0.69644,237.84587 l 194.34495,-10.90308 c 0,0 -71.31549,805.76007 -9.78175,817.54817 61.53374,11.7882 61.53374,11.7882 61.53374,11.7882 l 280.56184,-11.5885 8.5949,165.2248 296.2132,14.2946 25.513,-406.9484 241.7028,-49.3481 -45.9152,-251.22666 -221.9549,17.86298 102.2358,-126.8155 249.2538,-40.64888 -71.3334,-238.31193 -401.1252,38.44731 -38.1238,-227.79728"
       id="path3" />
    <rect
       style="fill:#ffffff;fill-opacity:1"
       id="rect1"
       width="236.94623"
       height="1029.5872"
       x="243.11566"
       y="485.62088" />
    <rect
       style="fill:#ffffff;fill-opacity:1"
       id="rect3"
       width="342.05533"
       height="292.0799"
       x="369.24182"
       y="819.72528" />
    <path
       style="fill:#000000"
       d="m 294.31734,1558.3214 -73.0017,-36.6262 0.335,-524.30712 0.335,-524.30715 124.6667,-10.81316 124.6667,-10.81316 73,36.45925 73,36.45925 v -36.00238 c 0,-34.87247 0.082,-36.00238 2.6141,-36.00238 2.9839,0 86.4202,-7.49643 97.0525,-8.71979 l 7,-0.80543 9e-4,-118.90406 8e-4,-118.90406 345.15846,-30.3758 345.1585,-30.3758 73.5073,36.2646 73.5073,36.26459 v 71.03252 c 0,39.06788 0.45,71.26899 1,71.55802 0.55,0.28902 64.9,-5.11494 143,-12.0088 l 142,-12.53431 73.007,36.41462 73.007,36.41463 -0.3403,120.65687 -0.3404,120.65688 -167.3333,14.23082 c -92.0333,7.82696 -167.4833,14.28415 -167.6667,14.34933 -0.1833,0.0652 -0.3333,13.0185 -0.3333,28.78517 v 28.66663 l 4.3333,-0.055 c 2.3834,-0.03 34.0334,-2.9375 70.3334,-6.4605 l 66,-6.4054 73.6666,36.3559 73.6667,36.3559 v 120.7713 c 0,112.78292 -0.1499,120.77132 -2.2669,120.77132 -3.0774,0 -269.9233,22.401 -278.7331,23.3989 l -7,0.793 v 212.3048 212.3048 l -126.2615,11.4708 -126.2616,11.4709 -73.0718,-36.5407 -73.0717,-36.5406 v -69.331 c 0,-38.132 -0.3124,-69.3309 -0.6941,-69.3309 -2.289,0 -231.6719,21.3947 -236.3059,22.0404 l -5.6667,0.7896 v 116.9252 116.9252 l -122.99996,10.381 c -67.65,5.7096 -124.5,10.4533 -126.3333,10.5416 -1.9036,0.092 -34.0028,-14.8014 -74.8348,-34.7212 -39.3258,-19.185 -71.8758,-34.8818 -72.3333,-34.8818 -0.4576,0 -0.8319,15.6 -0.8319,34.6666 0,31.6636 -0.1953,34.6667 -2.2542,34.6667 -2.2203,0 -229.4381,19.2929 -242.4125,20.5831 -6.5468,0.651 -7.9792,0 -79.6683,-35.9634 z m 17.6344,-61.9727 c 107.7962,-9.9431 141.7387,-13.2406 142.3248,-13.8267 0.3211,-0.3211 0.9319,-95.4057 1.3574,-211.2992 l 0.7736,-210.7153 6.7891,-0.774 c 3.734,-0.4258 43.389,-3.7324 88.1224,-7.348 44.7333,-3.6157 83.7886,-6.8742 86.7895,-7.2412 l 5.4561,-0.6672 0.7701,217.3941 c 0.4235,119.5667 1.1186,217.7426 1.5446,218.1686 0.426,0.426 18.6241,-0.8619 40.4404,-2.8619 114.1576,-10.4655 164.708,-15.4072 165.4776,-16.1768 0.9955,-0.9954 1.1828,-1001.41609 0.1877,-1002.41114 -0.367,-0.367 -46.9201,3.60053 -103.4513,8.81674 l -102.7841,9.48401 -0.882,75.95842 c -0.4851,41.77713 -0.882,124.45959 -0.882,183.73885 0,84.7985 -0.3521,107.7804 -1.6512,107.7804 -0.9082,0 -13.0582,0.9096 -27,2.0214 -13.9418,1.1119 -52.0488,4.1228 -84.6821,6.6911 -32.6333,2.5683 -62.7833,5.0361 -67,5.4841 l -7.6667,0.8145 v -113.1722 c -7e-4,-62.24477 -0.3974,-145.89555 -0.8814,-185.89068 l -0.8802,-72.71842 -53.4518,4.97111 c -29.3986,2.73411 -74.936,6.94305 -101.1943,9.35319 -26.2583,2.41014 -48.4284,4.80606 -49.2669,5.32427 -1.9112,1.18121 -3.1638,644.84625 -1.6635,854.78825 0.9063,126.816 1.1948,139.6667 3.1349,139.6667 1.1752,0 28.252,-2.4089 60.1706,-5.353 z m 1084.70046,-93.1478 96,-8.9032 0.8077,-63.9647 c 0.4442,-35.1805 0.8942,-130.3874 1,-211.5709 l 0.1923,-147.60622 4.3334,-0.6984 c 4.0539,-0.6533 274.3748,-23.4316 278,-23.4253 1.3184,0 1.6666,-20.7512 1.6666,-99.3305 v -99.3333 h -3.2483 c -3.9754,0 -45.6083,3.7525 -177.0473,15.9579 -55.5293,5.1565 -101.5323,9.3754 -102.2289,9.3754 -0.7898,0 -1.1803,-35.0013 -1.0376,-93 l 0.2288,-93 4.6667,-0.99821 c 2.5666,-0.54901 78.4666,-7.77263 168.6666,-16.05247 l 164,-15.05427 0.3421,-96.28086 0.3421,-96.28086 h -4.0739 c -2.2407,0 -46.1947,3.91213 -97.6755,8.69363 -95.936,8.91045 -174.7701,16.23049 -286.2681,26.58105 -34.8333,3.23364 -84.3333,7.8001 -110,10.14769 -25.6666,2.3476 -47.2309,4.78224 -47.9206,5.41032 -1.6398,1.49328 -2.7576,679.7507 -1.4218,862.721 l 0.9993,136.8869 6.8382,-0.6858 c 3.7611,-0.3772 50.0383,-4.6922 102.8382,-9.5889 z m -347.9999,-196.1846 c 115.758,-10.7509 127.7136,-11.9171 128.3138,-12.5174 0.3133,-0.3132 0.9158,-180.6208 1.3388,-400.68342 l 0.7692,-400.1138 2.7891,-0.002 c 3.9895,-0.002 202.848,-17.17727 210.4557,-18.17667 l 6.3333,-0.83199 V 272.86324 171.03501 h -7.0483 c -3.8766,0 -19.6266,1.18626 -35,2.63613 -41.38,3.90255 -121.9441,11.39981 -171.9516,16.00173 -24.2,2.22699 -56.6,5.23375 -72,6.68168 -15.4,1.44793 -44.5,4.15414 -64.6667,6.0138 -20.1667,1.85966 -49.26666,4.56811 -64.66666,6.01878 -15.4,1.45067 -73.5658,6.8557 -129.2573,12.01118 -55.6915,5.15547 -101.5915,9.70754 -102,10.1157 -1.0126,1.01187 -1.7286,194.75044 -0.7399,200.19745 0.6604,3.6377 1.2656,4.23557 3.7262,3.68097 1.6157,-0.36417 39.2377,-3.95841 83.6044,-7.98718 44.3666,-4.02877 85.7666,-7.91821 92,-8.64321 6.2333,-0.72499 17.7833,-1.72353 25.6666,-2.21897 l 14.3334,-0.90081 V 655.951 c 0,132.71978 0.3991,312.50818 0.887,399.5297 0.8025,143.1382 1.0885,158.2211 3,158.2217 1.1621,4e-4 34.51296,-3.0084 74.11296,-6.6861 z"
       id="path1" />
  </g>
</svg>
