<?xml version="1.0" encoding="utf-8"?>
<!-- Generator: Adobe Illustrator 28.0.0, SVG Export Plug-In . SVG Version: 6.00 Build 0)  -->
<svg version="1.1" id="Layer_1" xmlns="http://www.w3.org/2000/svg" xmlns:xlink="http://www.w3.org/1999/xlink" x="0px" y="0px"
	 viewBox="0 0 200 200" style="enable-background:new 0 0 200 200;" xml:space="preserve">
<style type="text/css">
	.st0{fill-rule:evenodd;clip-rule:evenodd;fill:#FFFFFF;}
</style>
<g>
	<path class="st0" d="M100,1C45.5,1,1,45.5,1,100s44.5,99,99,99s99-44.5,99-99S154.5,1,100,1z M90.1,140.1H69.5v-9.3
		c-5.9,9-13.1,12.8-23.9,12.8c-17.2,0-26.8-9.9-26.8-27.5V60.8h20.7v51c0,9.6,4.4,14.2,13.2,14.2c10.1,0,16.6-6.2,16.6-15.6V60.7H90
		L90.1,140.1L90.1,140.1z M160.5,140.1v-49c0-9.4-4.4-14.2-13.2-14.2c-10.1,0-16.6,6.2-16.6,15.6v47.6H110V60.7h20.6v0.1v11.4
		c5.9-9,13.1-12.8,23.9-12.8c17.2,0,26.8,9.9,26.8,27.5v53.2L160.5,140.1L160.5,140.1z"/>
</g>
</svg>
