<?xml version="1.0" encoding="UTF-8" standalone="no"?>
<!-- Created with Inkscape (http://www.inkscape.org/) -->

<svg
   version="1.1"
   id="svg1"
   width="1773.3335"
   height="1451.7572"
   viewBox="0 0 1773.3334 1451.7573"
   xmlns="http://www.w3.org/2000/svg"
   xmlns:svg="http://www.w3.org/2000/svg">
  <defs
     id="defs1" />
  <g
     id="g1"
     transform="translate(-7.5017741,-11.349144)">
    <path
       style="fill:#000000"
       d="M 79.835074,1426.7008 7.501774,1390.448 V 865.59587 340.74377 l 7,-0.804 7,-0.8039 118.001396,-10.1316 118.0014,-10.1315 72.6653,36.1705 72.6653,36.1705 0.3548,-35.2263 0.3548,-35.2262 3.6452,-0.6929 3.6452,-0.6928 49,-4.3864 49,-4.3864 V 191.51962 72.436514 l 1.6666,-0.0498 1.6667,-0.0498 344,-30.49388 344.00013,-30.49389 74,36.87701 74,36.87701 0.345,71.054536 0.3451,71.05454 9.6549,-0.86841 9.655,-0.86841 132.6666,-11.61844 132.6667,-11.61845 73.6667,36.76005 73.6666,36.76005 v 121.00564 121.0056 h -1.0004 -1.0004 l -165.6823,14 -165.6822,14 h -1.984 -1.984 v 28.7839 28.7838 l 5,-0.7628 5,-0.7629 65.9022,-6.2077 65.9022,-6.2077 73.7645,36.8404 73.7644,36.8404 v 120.5312 120.5313 l -4.3333,0.7205 -4.3333,0.7205 -140.3334,11.7554 -140.3333,11.7554 v 212.22203 212.2219 l -5,0.7519 -5,0.7518 -121.1919,10.9264 -121.1919,10.9264 -73.1414,-36.5513 -73.1415,-36.5514 v -69.2064 -69.2064 l -11.6667,0.8921 -11.6666,0.8921 -108.00013,10.0064 -108,10.0064 -1.6666,0.5897 -1.6667,0.5897 v 116.5834 116.5834 l -6.3333,0.7785 -6.3334,0.7785 -119.5464,10.0905 -119.5463,10.0905 -72.4537,-35.2741 -72.4536,-35.274 -0.3553,34.4738 -0.3554,34.4739 -4.3113,0.7062 -4.3113,0.7061 -118,10.0184 -118,10.0184 -4,-0.076 -4,-0.076 z m 67.301396,-67.8432 92.3013,-8.417 0.6574,-5.3353 0.6574,-5.3354 0.4736,-205.6545 0.4735,-205.65463 0.5677,-0.5202 0.5678,-0.5203 93.0665,-7.6475 93.0666,-7.6476 0.8583,0.8584 0.8583,0.8583 0.5463,216.29733 0.5462,216.2974 0.8622,0.831 0.8622,0.8311 83.3334,-7.7961 83.3333,-7.7961 18.6667,-1.7017 18.6666,-1.7016 0.7342,-221.3333 0.7342,-221.33343 -0.6157,-279.6666 -0.6157,-279.6667 h -1.808 -1.8081 l -100.4319,9.3333 -100.432,9.3334 h -0.8785 -0.8785 l -0.1808,146.3333 -0.1808,146.3334 -0.8192,37.3333 -0.8192,37.3333 -32,2.4549 -32,2.4548 -61.3333,4.9987 -61.3333,4.9988 -0.5908,-0.4888 -0.5907,-0.4887 -0.5823,-185.4236 -0.5823,-185.4237 -5.4937,0.7417 -5.4936,0.7416 -96.6667,8.8909 -96.666596,8.8909 -0.4634,0.4008 -0.4635,0.4007 v 487.8586 487.85853 l 0.9256,8.6422 0.9255,8.6422 8.8723,-0.9895 8.8723,-0.9896 z m 1029.00823,-87.8331 101.3096,-9.4322 0.8486,-1.3731 0.8487,-1.3732 0.5933,-209.8451 0.5934,-209.84523 0.598,-0.598 0.5981,-0.5981 136.6504,-11.4445 136.6504,-11.4446 4.3334,-0.7107 4.3333,-0.7108 v -98.2825 -98.2825 l -6.3333,0.4392 -6.3334,0.4392 -129.3333,11.879 -129.3333,11.879 -5.6667,0.7731 -5.6667,0.7731 v -94.1235 -94.1236 l 1.6667,-0.6114 1.6667,-0.6113 158.6666,-14.6754 158.6667,-14.6753 9,-0.8437 9,-0.8438 v -95.8736 -95.87365 l -6.3333,0.75293 -6.3334,0.75292 -50,4.59531 -50,4.5953 -64.6666,6.01149 -64.6667,6.01149 -72.6667,6.71656 -72.6666,6.71655 -78.6168,7.31971 -78.6167,7.31972 -0.8816,0.98327 -0.8816,0.98326 -0.4924,295.33334 -0.4924,295.3333 0.3241,203.00013 0.324,203 1,0.01 1,0.01 z m -313.97623,-199.3468 98,-8.8624 1.4873,-0.412 1.4873,-0.412 0.6086,-399.42893 0.6086,-399.4288 0.867,-0.86695 0.8669,-0.86695 105.70393,-9.10119 105.7038,-9.10119 3,-0.73913 3,-0.73913 V 141.07777 40.436514 h -8.8001 -8.8 l -71.5333,6.6991 -71.5333,6.6991 -50.66673,4.67553 -50.6666,4.67552 -50.0001,4.64552 -50,4.64552 -14,1.29744 -14,1.29743 -50,4.6527 -50,4.65271 -65.3333,6.02762 -65.3333,6.02762 -8,0.73242 -8,0.73242 -4.3334,0.66342 -4.3333,0.66343 V 200.59286 301.96167 l 7,-0.807 7,-0.8071 79.3333,-7.3212 79.3334,-7.3211 22.5245,-1.99877 22.5245,-1.99876 0.7127,0.71272 0.7127,0.71272 0.4645,392.31839 0.4645,392.31833 0.7094,6.8548 0.7095,6.8549 2.2555,-0.4698 2.2555,-0.4697 z"
       id="path1" />
  </g>
</svg>
