<?xml version="1.0" encoding="UTF-8" standalone="no"?>
<!-- Created with Inkscape (http://www.inkscape.org/) -->

<svg
   width="210mm"
   height="297mm"
   viewBox="0 0 210 297"
   version="1.1"
   id="svg1"
   xml:space="preserve"
   xmlns="http://www.w3.org/2000/svg"
   xmlns:svg="http://www.w3.org/2000/svg"><defs
     id="defs1" /><path
     style="fill:#ffffff;fill-opacity:1;stroke:#0000ff;stroke-width:0.163515;stroke-opacity:1"
     d="m 122.74396,85.700485 0.64332,118.691645 27.98421,1.60829 c 0,0 -4.09102,16.35275 5.5587,-25.14107 9.64973,-41.49383 7.62926,-25.68083 7.62926,-25.68083 l 24.44597,-11.90134 -10.29304,-18.97779 -25.7326,1.92995 21.55106,-16.08289 19.94276,-16.404525 -9.64972,-14.79625 z"
     id="path5" /><path
     style="fill:#ffffff;fill-opacity:1;stroke:#0000ff;stroke-width:0.163515;stroke-opacity:1"
     d="m 65.488909,64.149425 v 27.3409 l 20.586086,1.28663 -0.321656,94.888975 36.025651,-1.60828 -1.28663,-100.357165 27.3409,-3.21658 -8.3631,-26.05426 z"
     id="path4" /><path
     style="fill:#ffffff;fill-opacity:1;stroke:#0000ff;stroke-width:0.163515;stroke-opacity:1"
     d="M 12.640083,213.78065 12.412636,96.645835 35.725873,94.485085 v 43.442225 l 18.195702,-1.47839 0.682339,-44.238285 23.654416,-0.90979 0.796059,120.205355 -65.504521,4.89009 z"
     id="path3" /><g
     id="layer1"><path
       style="fill:#000000;fill-opacity:1;stroke:#000000;stroke-width:0.426188;stroke-opacity:1"
       d="m 17.063984,220.68701 -7.9264926,-4.28916 0.036357,-61.39958 0.036358,-61.399575 13.5362546,-1.26629 13.536254,-1.26628 7.92631,4.2696 7.926309,4.2696 v -4.2161 -4.2161 h 0.283847 c 0.323991,0 9.383471,-0.87788 10.537918,-1.02114 l 0.76006,-0.0943 9e-5,-13.92439 9.4e-5,-13.9244 37.477177,-3.5572 37.47717,-3.55719 7.98139,4.24681 7.98139,4.24681 v 8.31834 c 0,4.57509 0.0489,8.34604 0.10858,8.37988 0.0597,0.0339 7.04682,-0.59898 15.52688,-1.4063 l 15.41831,-1.46785 7.92706,4.26438 7.92707,4.26437 -0.037,14.129655 -0.0369,14.12967 -18.16899,1.66652 c -9.99294,0.91657 -18.18527,1.67275 -18.20517,1.68039 -0.0199,0.008 -0.0362,1.52454 -0.0362,3.37092 v 3.35704 l 0.47052,-0.006 c 0.25878,-0.004 3.69532,-0.344 7.63676,-0.75656 l 7.16625,-0.75012 7.9987,4.2575 7.9987,4.2575 v 14.14306 14.14306 h -0.24614 c -0.33414,0 -29.30817,2.6233 -30.26473,2.74016 l -0.76006,0.0929 v 24.8622 24.8622 l -13.70943,1.3433 -13.70942,1.34331 -7.9341,-4.27914 -7.93411,-4.27913 v -8.11908 c 0,-4.46549 -0.0339,-8.11909 -0.0754,-8.11909 -0.24854,0 -25.154848,2.50546 -25.658007,2.58108 l -0.615279,0.0925 v 13.69265 13.69266 l -13.355295,1.21569 c -7.345408,0.66862 -13.518159,1.22413 -13.71722,1.23447 -0.206687,0.0108 -3.692007,-1.73333 -8.125534,-4.06606 -4.269979,-2.24668 -7.804245,-4.08488 -7.853922,-4.08488 -0.04968,0 -0.09032,1.82686 -0.09032,4.05968 0,3.70801 -0.02122,4.05968 -0.244763,4.05968 -0.241073,0 -24.912293,2.25932 -26.321043,2.4104 l -0.723865,0.0776 z m 1.914737,-7.2574 c 11.70446,-1.1644 15.389927,-1.55055 15.453564,-1.61918 0.03488,-0.0376 0.101192,-11.1726 0.147388,-24.74443 l 0.084,-24.67605 0.737156,-0.0907 c 0.405435,-0.0499 4.711167,-0.43709 9.568292,-0.8605 4.857129,-0.42341 9.097733,-0.80501 9.42357,-0.84798 l 0.592433,-0.0781 0.08361,25.45818 c 0.04599,14.00201 0.121456,25.499 0.16771,25.54889 0.04625,0.0499 2.022203,-0.10093 4.391004,-0.33515 12.395183,-1.22557 17.883932,-1.80428 17.967493,-1.8944 0.108084,-0.11657 0.128423,-117.271965 0.0204,-117.388495 -0.03986,-0.043 -5.094564,0.42165 -11.2327,1.0325 l -11.160249,1.11064 -0.09577,8.895185 c -0.05267,4.89236 -0.09577,14.57498 -0.09577,21.51695 0,9.93042 -0.03825,12.62174 -0.179291,12.62174 -0.09861,0 -1.417853,0.10653 -2.931648,0.23673 -1.513796,0.13021 -5.651436,0.48281 -9.194747,0.78357 -3.543315,0.30076 -6.816989,0.58975 -7.274833,0.64221 l -0.832443,0.0954 -1.48e-4,-13.25317 c -7.7e-5,-7.28924 -0.04315,-17.08525 -0.09571,-21.76893 l -0.09557,-8.515765 -5.803781,0.58214 c -3.192079,0.32019 -8.136513,0.81308 -10.987629,1.09532 -2.851116,0.28224 -5.258337,0.56282 -5.349375,0.62351 -0.207525,0.13833 -0.343537,75.515435 -0.180625,100.100935 0.0984,14.85093 0.129725,16.35583 0.340381,16.35583 0.127604,0 3.067591,-0.28209 6.533305,-0.62688 z m 117.776349,-10.90817 10.42364,-1.04262 0.0877,-7.49065 c 0.0482,-4.11987 0.0971,-15.26918 0.10858,-24.77625 l 0.0209,-17.2856 0.47051,-0.0818 c 0.44018,-0.0765 29.79151,-2.74399 30.18513,-2.74326 0.14316,2.7e-4 0.18097,-2.43008 0.18097,-11.6322 v -11.63254 h -0.35271 c -0.43164,0 -4.95213,0.43944 -19.22372,1.86877 -6.02936,0.60385 -11.02434,1.09791 -11.09997,1.09791 -0.0858,0 -0.12816,-4.09886 -0.11266,-10.89087 l 0.0248,-10.89087 0.50671,-0.1169 c 0.27868,-0.0643 8.51988,-0.91022 18.31375,-1.87984 l 17.80705,-1.76295 0.0371,-11.275065 0.0371,-11.27508 h -0.44235 c -0.24329,0 -5.01579,0.45813 -10.60556,1.01808 -10.4167,1.04347 -18.97647,1.90068 -31.08287,3.1128 -3.78219,0.37868 -9.15689,0.91344 -11.94376,1.18835 -2.78688,0.27493 -5.12832,0.56003 -5.2032,0.63358 -0.17805,0.17488 -0.29942,79.602965 -0.15438,101.029915 l 0.10851,16.0303 0.74249,-0.0803 c 0.40837,-0.0442 5.43313,-0.54949 11.16613,-1.12292 z M 98.969371,179.54701 c 12.568969,-1.25898 13.867099,-1.39556 13.932269,-1.46585 0.034,-0.0367 0.0994,-21.15181 0.14537,-46.92248 l 0.0835,-46.855785 0.30284,-1.8e-4 c 0.43318,-2.6e-4 22.02516,-2.01156 22.8512,-2.1286 l 0.68767,-0.0974 v -11.92471 -11.92471 h -0.7653 c -0.42092,0 -2.13106,0.13892 -3.80029,0.30871 -4.49302,0.45701 -13.24064,1.33498 -18.67044,1.8739 -2.62763,0.26079 -6.14561,0.6129 -7.81773,0.78246 -1.67213,0.16957 -4.83179,0.48648 -7.02148,0.70426 -2.189692,0.21777 -5.349357,0.53495 -7.021484,0.70483 -1.672126,0.16989 -7.987749,0.80285 -14.034711,1.40659 -6.046967,0.60373 -11.030771,1.13681 -11.07512,1.18461 -0.10995,0.11849 -0.187695,22.80646 -0.08033,23.44434 0.0717,0.426 0.137409,0.49601 0.404581,0.43107 0.175435,-0.0426 4.260416,-0.46356 9.077734,-0.93535 4.817319,-0.4718 9.312511,-0.92727 9.989319,-1.01217 0.676814,-0.0849 1.930912,-0.20184 2.786882,-0.25986 l 1.556305,-0.10549 v 28.258745 c 0,15.54229 0.04332,36.59661 0.09632,46.78737 0.08713,16.76235 0.118182,18.52865 0.325741,18.52873 0.126179,4e-5 3.747399,-0.35231 8.047152,-0.783 z"
       id="path1" /></g></svg>
