<?xml version="1.0" encoding="UTF-8"?>
<svg version="1.1" xmlns="http://www.w3.org/2000/svg" width="1597" height="1308">
<path d="M0 0 C1.13225828 -0.02565792 2.26451657 -0.05131584 3.43108571 -0.07775128 C14.0194055 -0.02302901 23.37797414 3.69669954 32.62875366 8.63192749 C33.72248417 9.20651451 34.81621468 9.78110153 35.94308853 10.37310028 C37.06299053 10.96392647 38.18289253 11.55475266 39.33673096 12.16348267 C41.72915583 13.37249834 44.12340732 14.57701406 46.52053833 15.77658081 C51.49084204 18.27544809 56.4364594 20.81803516 61.36749268 23.39346313 C67.02451863 26.34775083 72.70895467 29.24218529 78.41317952 32.10416579 C83.97313833 34.89397666 89.51863965 37.71123634 95.05602646 40.54557037 C97.38250486 41.73520624 99.71146819 42.91999687 102.04306412 44.09957123 C129.61863479 58.11971783 129.61863479 58.11971783 134.76641846 67.55410767 C136.66996993 74.43978447 136.30859183 81.5574376 136.15704346 88.63223267 C136.15709988 90.65533116 136.16245682 92.67843578 136.17285156 94.70150757 C136.18595645 99.9896696 136.12774255 105.27465727 136.05395508 110.56222534 C135.99131471 115.97221458 135.99709929 121.3821008 135.99688721 126.79238892 C135.98650697 137.3806239 135.90067784 147.96676878 135.76641846 158.55410767 C136.62612842 158.47680168 137.48583838 158.3994957 138.37160015 158.31984711 C159.42706796 156.42741728 180.4837799 154.54940338 201.54191113 152.68683624 C211.72601871 151.78572446 221.90967282 150.87998731 232.09234619 149.96279907 C240.98211721 149.16207942 249.8726586 148.37060983 258.76418382 147.58960199 C263.45891828 147.17692062 268.15318374 146.76005153 272.84654808 146.33204651 C283.74730835 145.34045615 294.6485518 144.44077789 305.5698421 143.70673275 C307.67907492 143.56017657 309.78642349 143.39719399 311.89412117 143.2301712 C331.91748477 141.76383402 345.60595192 145.88286363 363.23907471 155.16348267 C365.63301005 156.37231503 368.02871498 157.57682468 370.4271698 158.77658081 C375.4027242 161.27671876 380.35442799 163.81928988 385.29205322 166.39346313 C390.95705154 169.34652171 396.64883962 172.24117429 402.35983092 175.10416579 C407.92452241 177.89408979 413.47478023 180.7114562 419.01708794 183.54557037 C421.346298 184.73532853 423.67805208 185.92012125 426.01249886 187.09957123 C429.27687295 188.75684213 432.52328892 190.4450437 435.7666626 192.14297485 C436.70654022 192.61412216 437.64641785 193.08526947 438.61477661 193.57069397 C446.44732653 197.74107561 456.58103116 203.68824837 459.43817055 212.66455984 C460.57180253 218.672827 460.40144547 224.73106971 460.31915283 230.81973267 C460.33543875 232.85131325 460.35681929 234.88285836 460.38287354 236.91433716 C460.43732911 242.40275343 460.41648107 247.88844682 460.37832451 253.37690735 C460.34781022 259.1368917 460.37615561 264.89665259 460.3949585 270.65664673 C460.41675253 280.32731728 460.38812105 289.99688592 460.33087158 299.66738892 C460.26556794 310.82682221 460.28672488 321.98362436 460.35278845 333.14299393 C460.40735485 342.74696905 460.41487591 352.35015492 460.38352442 361.95423508 C460.36487514 367.68038778 460.36215381 373.40530621 460.40196228 379.13137817 C460.43679347 384.5171082 460.41229994 389.89946771 460.3432312 395.28483582 C460.32744949 397.25351887 460.33177659 399.22248879 460.35838318 401.1910553 C460.55899594 417.5500329 460.55899594 417.5500329 454.74103975 424.13497972 C448.72039097 430.13253914 443.22393871 432.30375477 434.66790771 432.39880371 C430.15044814 432.51710832 425.68576508 432.88805625 421.18696213 433.30614567 C418.01092238 433.5990838 414.83363906 433.86669963 411.65478516 434.12724304 C407.03218634 434.50617432 402.40980807 434.88748503 397.78771973 435.27259827 C390.36421764 435.8904865 382.94034816 436.50388157 375.51641846 437.11660767 C366.86481398 437.83070129 358.21337256 438.54666325 349.56232452 439.26746941 C346.11197056 439.55397198 342.66134376 439.83701228 339.21069336 440.11991882 C337.10262664 440.29515865 334.99457332 440.47055976 332.88653564 440.64614868 C331.45276833 440.7622776 331.45276833 440.7622776 329.99003601 440.88075256 C325.85284692 441.22861227 321.81694524 441.59270824 317.76641846 442.55410767 C318.89013351 443.10153122 320.01384857 443.64895477 321.1716156 444.21296692 C331.82114557 449.40528813 342.45642239 454.6258428 353.07879162 459.87351513 C358.53879967 462.56976768 364.00315409 465.25624835 369.47906494 467.92007446 C374.77515853 470.49688207 380.05769675 473.09977024 385.33226967 475.72033119 C387.33490124 476.70974593 389.34204732 477.69008287 391.35390282 478.66060448 C394.19728326 480.03428498 397.02206749 481.44103713 399.84527588 482.85562134 C400.65880524 483.23901672 401.47233459 483.62241211 402.31051636 484.01742554 C410.35471862 488.13028421 420.46111628 494.76480132 423.50167143 503.71948874 C424.70693783 509.71247444 424.52746935 515.75751417 424.43267822 521.84146118 C424.44868526 523.86334118 424.47022774 525.8851837 424.49684143 527.9069519 C424.55153743 533.36451951 424.52490007 538.81882764 424.47971845 544.27637219 C424.44289764 550.0056483 424.47071293 555.73468635 424.48832703 561.46400452 C424.50736354 571.0817112 424.47248785 580.69810984 424.40631104 590.31558228 C424.33070458 601.41315132 424.34485892 612.5079077 424.40613705 623.60550171 C424.46280049 634.31070819 424.45156328 645.01486161 424.41114616 655.72010612 C424.3954173 660.26281359 424.40394741 664.80450068 424.43252754 669.34713936 C424.46344715 674.702568 424.43484925 680.0545468 424.36152458 685.40953064 C424.34415522 687.36690937 424.34686808 689.32459248 424.37184143 691.28188896 C424.55894714 707.5638404 424.55894714 707.5638404 418.46192259 714.15785497 C412.79349289 719.57177493 408.73359141 721.68120889 400.90863037 722.31974792 C399.67699276 722.42516015 399.67699276 722.42516015 398.42047358 722.53270191 C395.65394516 722.76845918 392.88695594 722.9982919 390.11993408 723.22817993 C388.14258392 723.39546103 386.16526423 723.56310258 384.18797302 723.7310791 C378.80620722 724.18721716 373.42402217 724.63822395 368.04174614 725.08829618 C362.41966041 725.55924178 356.79795699 726.03470756 351.1762085 726.50965881 C341.73401235 727.30673512 332.29156544 728.10078097 322.84893799 728.89273071 C309.51825531 730.01077935 296.18805823 731.1345361 282.85794163 732.25931084 C273.64174705 733.03674253 264.42543644 733.81279719 255.20910454 734.58859897 C252.96976327 734.77710772 250.73042536 734.96565653 248.49109077 735.15424466 C242.10839307 735.69172641 235.72562491 736.22835572 229.3427372 736.76357651 C227.40525752 736.92615772 225.46780158 737.08902214 223.53037071 737.25218391 C220.89504779 737.47405793 218.25964039 737.69489911 215.62420654 737.91545105 C214.84931586 737.98091505 214.07442517 738.04637905 213.27605295 738.11382681 C207.99494493 738.55410767 207.99494493 738.55410767 205.76641846 738.55410767 C205.77325342 739.52167673 205.77325342 739.52167673 205.78022647 740.50879264 C206.04892338 778.76274498 206.25473706 817.01657531 206.37920241 855.27128069 C206.3942104 859.8673483 206.40974231 864.463414 206.42559814 869.05947876 C206.42874587 869.97444977 206.43189359 870.88942078 206.43513671 871.83211818 C206.48731397 886.63588795 206.58190658 901.43909696 206.69225201 916.24253437 C206.80457976 931.43896408 206.87114658 946.63510068 206.89548039 961.83192849 C206.91192411 971.20511351 206.96380191 980.57671349 207.06141606 989.94941041 C207.12498447 996.38185426 207.14398991 1002.81348209 207.12843499 1009.24621704 C207.12076802 1012.95502766 207.13228046 1016.661075 207.19688416 1020.36939049 C207.60437678 1044.93069229 207.60437678 1044.93069229 201.47587705 1051.78936124 C196.33525344 1056.55786407 192.09964051 1058.62444062 185.10670471 1059.28178406 C184.41380771 1059.34797532 183.72091071 1059.41416658 183.00701684 1059.48236364 C180.67236876 1059.70429368 178.3372146 1059.92034822 176.00201416 1060.13638306 C174.3310011 1060.29386553 172.66001684 1060.45165391 170.98905945 1060.60972595 C165.47399677 1061.12977955 159.95813119 1061.64102166 154.44219971 1062.15176392 C152.53187384 1062.32910204 150.62155167 1062.50647992 148.71123314 1062.68389702 C140.73452419 1063.42418359 132.75762405 1064.1623463 124.78017902 1064.8946619 C113.43439013 1065.93619539 102.08985736 1066.98955025 90.74684459 1068.06090933 C82.73382859 1068.81674329 74.71956916 1069.55838298 66.70432919 1070.29025072 C61.94309937 1070.72533035 57.18254291 1071.1657968 52.42324257 1071.62153816 C33.10150013 1073.46648067 13.85949744 1074.88722832 -5.55706787 1075.0609436 C-6.76685147 1075.0820881 -6.76685147 1075.0820881 -8.00107515 1075.10365975 C-23.085698 1075.3310469 -34.23944784 1071.48600671 -47.23358154 1063.74160767 C-49.07308376 1062.71895533 -50.91688212 1061.70399366 -52.76483154 1060.69668579 C-56.43667613 1058.6877883 -60.08668507 1056.64538234 -63.72796631 1054.58169556 C-72.98054826 1049.41063915 -82.63260094 1045.03157312 -92.23358154 1040.55410767 C-97.98336745 1037.86048465 -103.72086489 1035.14417338 -109.43499756 1032.37564087 C-111.02008605 1031.6143198 -112.61039612 1030.86378353 -114.20550537 1030.12368774 C-116.60559259 1029.00730598 -118.9842803 1027.85296966 -121.36248779 1026.69082642 C-122.04928116 1026.3819902 -122.73607452 1026.07315399 -123.44367981 1025.75495911 C-131.61542273 1021.65615188 -141.97494646 1014.25472825 -144.99979591 1005.28100395 C-146.15451791 999.19581932 -145.84586196 993.09436782 -145.60076904 986.93692017 C-145.57459722 984.98402062 -145.55469714 983.03102798 -145.54074097 981.07800293 C-145.48774522 975.98245198 -145.35067389 970.89265275 -145.19488525 965.79934692 C-145.05063995 960.58427739 -144.98751318 955.36826103 -144.91717529 950.15176392 C-144.7678493 939.95004279 -144.52951248 929.75255672 -144.23358154 919.55410767 C-144.89358154 919.88410767 -145.55358154 920.21410767 -146.23358154 920.55410767 C-147.79408596 920.77536973 -149.36186172 920.94629933 -150.93122864 921.09196472 C-151.92225586 921.18589508 -152.91328308 921.27982544 -153.93434143 921.37660217 C-155.57145332 921.52549644 -155.57145332 921.52549644 -157.24163818 921.67739868 C-158.3881485 921.78483398 -159.53465881 921.89226929 -160.71591187 922.00296021 C-164.52481935 922.3587316 -168.33424684 922.70854947 -172.14373779 923.05801392 C-174.78735014 923.30297298 -177.43093965 923.54816912 -180.07450867 923.79359436 C-185.6268597 924.30839855 -191.17951878 924.81977571 -196.73236084 925.32925415 C-203.13560211 925.91681006 -209.53828131 926.51021301 -215.94069582 927.10670525 C-221.44458528 927.61932402 -226.94876843 928.12869539 -232.4532041 928.63541549 C-235.73724081 928.93773814 -239.02113327 929.24148563 -242.30482674 929.54751778 C-245.97611726 929.88908168 -249.64785828 930.22532534 -253.31976318 930.56021118 C-254.3970015 930.66149826 -255.47423981 930.76278534 -256.5841217 930.86714172 C-262.49670374 931.40010238 -268.29693706 931.65230678 -274.23358154 931.55410767 C-274.22252003 932.39341198 -274.21145851 933.23271629 -274.2000618 934.09745407 C-273.93461146 954.55539725 -273.73626319 975.01304212 -273.61183548 995.47234726 C-273.55005708 1005.36660506 -273.46589307 1015.25971071 -273.32830811 1025.15322876 C-273.20839178 1033.78036332 -273.1312113 1042.40666327 -273.10451961 1051.03460813 C-273.0889247 1055.60013028 -273.05250085 1060.1632657 -272.96482086 1064.72801971 C-272.88280603 1069.03308572 -272.85834819 1073.33480424 -272.87628937 1077.64057732 C-272.87301217 1079.21280367 -272.84945967 1080.7851524 -272.80311584 1082.35669899 C-272.56927616 1090.70207717 -273.44448817 1097.2439468 -279.31872559 1103.46090698 C-285.43300725 1109.20961203 -291.96627321 1110.28992985 -300.16882157 1110.48722601 C-302.84935589 1110.57405381 -305.50649775 1110.84427938 -308.1733135 1111.12049317 C-311.64814286 1111.4778434 -315.12927236 1111.76483657 -318.60931396 1112.0663147 C-320.17725446 1112.20432848 -321.74517585 1112.34255955 -323.31307983 1112.48098755 C-328.40467094 1112.92925709 -333.49681914 1113.3709897 -338.58905029 1113.81192017 C-340.36634173 1113.96607831 -342.1436327 1114.12024172 -343.92092323 1114.27441025 C-351.33725144 1114.91719791 -358.75373099 1115.55819214 -366.17061901 1116.19449043 C-376.66766686 1117.09510616 -387.16367587 1118.00622202 -397.65848464 1118.9325763 C-405.10889932 1119.58930502 -412.56034236 1120.23345932 -420.012595 1120.86898696 C-424.42688359 1121.24574285 -428.8406103 1121.6272641 -433.25328636 1122.02249527 C-451.34989064 1123.63883536 -469.36506807 1124.84082853 -487.53997803 1124.94937134 C-488.70383359 1124.96328568 -488.70383359 1124.96328568 -489.89120138 1124.97748113 C-502.16332537 1125.09794435 -511.63196693 1123.33989971 -522.10858154 1116.74160767 C-523.49589832 1115.95187767 -524.88797633 1115.17046118 -526.28436279 1114.3968811 C-529.02533009 1112.87024682 -531.74313639 1111.31217439 -534.44744873 1109.72158813 C-539.87333074 1106.56600666 -545.53966881 1103.93543545 -551.23358154 1101.30410767 C-552.96378087 1100.48858663 -554.69301625 1099.67101598 -556.42108154 1098.85098267 C-557.20612061 1098.47908813 -557.99115967 1098.1071936 -558.79998779 1097.72402954 C-562.97033007 1095.71918602 -567.10291466 1093.63921558 -571.23358154 1091.55410767 C-571.13303467 1093.51090454 -571.13303467 1093.51090454 -571.03045654 1095.50723267 C-570.71851784 1111.1056603 -570.71851784 1111.1056603 -576.49822998 1117.20352173 C-581.85519169 1122.12892435 -585.48260262 1124.5904748 -592.84860229 1125.24382019 C-593.53671018 1125.3059279 -594.22481806 1125.36803561 -594.93377769 1125.43202537 C-597.25228905 1125.64018651 -599.57128078 1125.84239466 -601.89031982 1126.04458618 C-603.54985726 1126.19221028 -605.20936693 1126.34014673 -606.86885071 1126.4883728 C-612.34667134 1126.97598303 -617.82525531 1127.45469853 -623.30389404 1127.93301392 C-625.20181571 1128.09919918 -627.09973312 1128.26543311 -628.99764633 1128.43171501 C-637.95145208 1129.2156232 -646.9056057 1129.99540849 -655.86019242 1130.77034432 C-666.10250311 1131.65686926 -676.34346733 1132.55723174 -686.5834657 1133.47006851 C-694.54479259 1134.17880671 -702.50725489 1134.87377705 -710.47061527 1135.55928367 C-715.19994338 1135.96671484 -719.92865496 1136.37932799 -724.6562233 1136.80673409 C-744.13488859 1138.56257784 -763.53430798 1139.86897008 -783.0980835 1140.01992798 C-783.93202928 1140.03251841 -784.76597506 1140.04510884 -785.62519193 1140.05808079 C-800.10887989 1140.2451415 -810.82546932 1137.32737138 -823.29608154 1129.74160767 C-825.07254109 1128.74990438 -826.85391775 1127.76696362 -828.63983154 1126.79238892 C-832.0659183 1124.91261927 -835.46767796 1122.99905576 -838.85125732 1121.04385376 C-844.01257465 1118.07935751 -849.31892613 1115.51957486 -854.73358154 1113.05410767 C-856.44107286 1112.24270135 -858.14670889 1111.42738284 -859.85076904 1110.60879517 C-863.57977444 1108.82105491 -867.31301466 1107.04277079 -871.05096436 1105.27383423 C-875.71830919 1103.06087361 -880.36907016 1100.8152333 -885.01361084 1098.55484009 C-886.87856206 1097.65301222 -888.74808286 1096.7605604 -890.62249756 1095.87857056 C-893.28988369 1094.62150439 -895.93806344 1093.32985333 -898.58514404 1092.03067017 C-899.75292892 1091.49471725 -899.75292892 1091.49471725 -900.94430542 1090.94793701 C-903.52443306 1089.65416158 -905.82879721 1088.15374592 -908.23358154 1086.55410767 C-909.85269791 1085.55393933 -909.85269791 1085.55393933 -911.50452369 1084.53356558 C-916.66595466 1080.80595403 -920.4405694 1076.78652489 -921.98847719 1070.4770581 C-923.16210414 1061.56178261 -923.0017 1052.57273619 -922.89745839 1043.59854888 C-922.86344004 1039.4281986 -922.90512461 1035.25846891 -922.93695587 1031.08819586 C-922.98229331 1023.78584068 -922.97946748 1016.48474558 -922.94475174 1009.18235016 C-922.89327045 998.32370295 -922.91625392 987.46609399 -922.95379341 976.60743539 C-923.01835172 957.21336936 -923.00874129 937.81987279 -922.96772602 918.42577413 C-922.9320308 901.45439608 -922.92092913 884.48322319 -922.93424797 867.51181221 C-922.93509585 866.38596104 -922.93594373 865.26010988 -922.93681731 864.10014201 C-922.94028295 859.52992878 -922.94385096 854.95971564 -922.94758052 850.38950262 C-922.98213302 807.52048501 -922.94168782 764.65182538 -922.86708499 721.78287439 C-922.80125512 683.69628114 -922.79969606 645.61019945 -922.85296631 607.52359009 C-922.912573 564.73140501 -922.93369277 521.93949625 -922.89135784 479.14728075 C-922.88694243 474.58571635 -922.88261137 470.02415187 -922.87830925 465.46258736 C-922.87721382 464.33941645 -922.87611839 463.21624554 -922.87498977 462.05903914 C-922.85909367 445.09762536 -922.87239703 428.13639538 -922.89969063 411.17500114 C-922.93052099 391.8898662 -922.91827101 372.60528974 -922.84926964 353.32024258 C-922.81184257 342.52664798 -922.80735445 331.73423354 -922.85037374 320.94065309 C-922.87577094 313.73098256 -922.85752779 306.52227393 -922.80377747 299.31276123 C-922.77435663 295.20440627 -922.76371919 291.09840535 -922.80600388 286.9901092 C-923.06197883 260.08918806 -923.06197883 260.08918806 -917.2122176 253.17064351 C-911.48828426 247.6664395 -905.21038141 245.74628754 -897.36583328 245.67114639 C-893.35455302 245.57439654 -889.40715455 245.20146771 -885.41506958 244.78210449 C-882.66050807 244.52683635 -879.90470832 244.28568241 -877.14910889 244.04190063 C-875.61234809 243.90387256 -874.07560547 243.76564191 -872.53887939 243.62722778 C-867.54949054 243.17906457 -862.559554 242.73719811 -857.56951904 242.29629517 C-856.71094693 242.22033442 -855.85237481 242.14437367 -854.96778536 242.06611109 C-846.81942158 241.3452924 -838.67086933 240.62664663 -830.52181053 239.9137249 C-820.23340159 239.01353393 -809.9460974 238.10243369 -799.6600498 237.17563903 C-792.35490487 236.51838394 -785.04866269 235.87431567 -777.74155772 235.23922837 C-773.41493234 234.86285945 -769.08891457 234.48151172 -764.76401901 234.08572006 C-694.27149259 227.65536021 -694.27149259 227.65536021 -674.64764404 238.99160767 C-673.18092269 239.76069372 -671.71052418 240.52280087 -670.23684692 241.2784729 C-666.48630239 243.22409182 -662.79119925 245.25599641 -659.10211182 247.31521606 C-655.28227425 249.42455452 -651.41407322 251.44141109 -647.54998779 253.46817017 C-640.0630477 257.41146031 -632.6324508 261.44795026 -625.23358154 265.55410767 C-625.23438217 264.95592224 -625.2351828 264.35773682 -625.23600769 263.74142456 C-625.22249051 260.9955959 -625.16391207 258.25244052 -625.10467529 255.50723267 C-625.10672974 254.56637817 -625.10878418 253.62552368 -625.11090088 252.65615845 C-624.94210969 246.65294941 -624.01441766 243.20580899 -619.88433838 238.77505493 C-615.25845768 234.49084446 -611.61515062 231.5821211 -605.22406006 230.9815979 C-604.17859512 230.88156967 -603.13313019 230.78154144 -602.0559845 230.67848206 C-600.35145363 230.52217064 -600.35145363 230.52217064 -598.61248779 230.36270142 C-597.44281967 230.25313614 -596.27315155 230.14357086 -595.06803894 230.03068542 C-592.58410133 229.7992411 -590.09996826 229.56988668 -587.61566162 229.34243774 C-583.84246108 228.99586765 -580.07025308 228.63970522 -576.29803467 228.28262329 C-573.88207335 228.05872918 -571.46605921 227.83540427 -569.04998779 227.61270142 C-567.37278404 227.45335365 -567.37278404 227.45335365 -565.66169739 227.29078674 C-564.58786301 227.19391068 -563.51402863 227.09703461 -562.40765381 226.9972229 C-561.47880875 226.91141464 -560.54996368 226.82560638 -559.5929718 226.73719788 C-554.80608179 226.47630747 -550.02630202 226.52000272 -545.23358154 226.55410767 C-545.24464306 225.69934216 -545.25570457 224.84457664 -545.26710129 223.96390915 C-545.53253572 203.13042547 -545.73089234 182.29723464 -545.85532761 161.46241379 C-545.91710952 151.386565 -546.00128066 141.31184737 -546.13885498 131.23672485 C-546.25876005 122.45137731 -546.33594923 113.66684917 -546.36264348 104.88070607 C-546.37824015 100.23136607 -546.41467653 95.58436935 -546.50234222 90.93578339 C-546.58433861 86.55193864 -546.60881819 82.17138114 -546.59087372 77.78684235 C-546.59415168 76.18559333 -546.61771444 74.58422448 -546.66404724 72.98364258 C-546.89677208 64.52280943 -546.0876997 58.04261399 -540.1484375 51.63009644 C-534.28977769 45.62261766 -527.57809733 45.42049763 -519.55648136 44.74876332 C-517.2090237 44.55204975 -514.86545313 44.32853206 -512.52104664 44.09844494 C-507.19317125 43.58254547 -501.86159914 43.11247787 -496.52944946 42.64318848 C-494.47459999 42.46020892 -492.41977238 42.27698374 -490.3649646 42.0935365 C-484.75847676 41.59375989 -479.15167479 41.09759129 -473.54480815 40.60208488 C-467.48156543 40.06563165 -461.41861677 39.52587273 -455.35562134 38.9866333 C-441.42611321 37.74850207 -427.49616192 36.51540597 -413.56610174 35.28350576 C-408.74041984 34.85674085 -403.91475684 34.42976283 -399.08910608 34.00264597 C-373.3590338 31.7252939 -347.62882798 29.44945963 -321.89813042 27.17918205 C-315.94923602 26.65427533 -310.00034326 26.1293501 -304.05145264 25.60440063 C-303.31248024 25.53919333 -302.57350785 25.47398602 -301.81214235 25.40680274 C-277.87709263 23.29469215 -253.94294402 21.17257924 -230.00929474 19.04466218 C-205.34886427 16.85216903 -180.68769034 14.66824907 -156.02550891 12.49553523 C-152.53296127 12.18784499 -149.04042142 11.88006658 -145.54788589 11.57223892 C-144.51707308 11.48139049 -144.51707308 11.48139049 -143.46543576 11.38870674 C-132.4698347 10.41940133 -121.47502669 9.44137431 -110.48049143 8.46006213 C-99.40169054 7.47144507 -88.3220243 6.49292489 -77.2415161 5.52361046 C-71.25443754 4.99959273 -65.26779683 4.47151992 -59.28211975 3.93170929 C-18.09069757 0.22271258 -18.09069757 0.22271258 0 0 Z " fill="#000000" transform="translate(1030.2335815429688,83.44589233398438)"/>
<path d="M0 0 C0.73289434 54.20999863 1.10275751 108.4174107 1.12939453 162.63208008 C1.12994093 163.71779775 1.12994093 163.71779775 1.13049836 164.82544911 C1.13988238 183.98087911 1.13932866 203.13630542 1.13529945 222.29173674 C1.13294914 233.69323209 1.13271795 245.09472602 1.13381577 256.49622154 C1.13393034 257.73093038 1.13393034 257.73093038 1.13404724 258.99058283 C1.13435877 262.33517686 1.1346772 265.6797709 1.135007 269.02436493 C1.1380312 300.06627158 1.13534652 331.1081753 1.1299101 362.15008149 C1.12514811 389.54968154 1.12561008 416.94927694 1.13037109 444.34887695 C1.13575224 475.41809064 1.13783615 506.48730178 1.13475883 537.55651587 C1.13443827 540.87950655 1.13412542 544.20249722 1.13381577 547.5254879 C1.13373669 548.34319426 1.13365761 549.16090062 1.13357614 550.00338595 C1.13245153 562.20510137 1.13374403 574.40681489 1.13629532 586.60853004 C1.13918299 600.48477614 1.13837932 614.36101695 1.13301457 628.23726241 C1.13037886 635.28218347 1.1291818 642.32709597 1.13266373 649.37201691 C1.14789401 683.92676191 0.81066732 718.45435306 0 753 C-3.92296275 753.47863914 -7.84630441 753.95410349 -11.76971436 754.42906189 C-13.4114327 754.62942559 -13.4114327 754.62942559 -15.08631706 754.83383703 C-24.22371211 755.93753946 -33.37170642 756.85922846 -42.54034424 757.66078186 C-43.5239518 757.74725542 -44.50755936 757.83372898 -45.52097321 757.92282295 C-46.5298333 758.01145544 -47.53869339 758.10008793 -48.578125 758.19140625 C-50.73414171 758.38376015 -52.89012652 758.57647188 -55.04608154 758.76951599 C-60.64668299 759.2701355 -66.24766293 759.76637719 -71.84875488 760.26147461 C-78.62666773 760.86135018 -85.40414509 761.46612221 -92.18165207 762.07056332 C-97.45945408 762.5412227 -102.73731981 763.01110713 -108.01544189 763.47816467 C-109.95463425 763.65019614 -111.89382296 763.82226869 -113.83300781 763.99438477 C-115.23089979 764.11792753 -115.23089979 764.11792753 -116.65703201 764.2439661 C-121.36906267 764.66352415 -126.07828735 765.10222935 -130.78552246 765.57272339 C-132.1951935 765.71237597 -132.1951935 765.71237597 -133.63334274 765.85484982 C-135.39458317 766.03055905 -137.15547124 766.20985847 -138.91588211 766.39369297 C-139.71504421 766.47328219 -140.51420631 766.55287142 -141.33758545 766.63487244 C-142.02355175 766.70555907 -142.70951805 766.77624571 -143.41627121 766.84907436 C-147.2767659 767.07458086 -151.13408307 767.0274955 -155 767 C-155.73002968 725.57717739 -156.148425 684.17195157 -156.10353777 642.74169965 C-156.09610862 635.68395086 -156.09486412 628.62620375 -156.09374207 621.56845161 C-156.09159525 608.99948835 -156.08505929 596.43053187 -156.07543945 583.86157227 C-156.06614836 571.70890332 -156.05912616 559.55623627 -156.05493164 547.40356445 C-156.05453756 546.26503989 -156.05453756 546.26503989 -156.05413551 545.10351483 C-156.05282973 541.29278882 -156.0515662 537.4820628 -156.05032361 533.67133677 C-156.04008832 502.44755293 -156.02251731 471.22377753 -156 440 C-157.00579983 440.13109098 -158.01159966 440.26218197 -159.04787827 440.39724541 C-167.640885 441.50330507 -176.2230726 442.44670454 -184.86035156 443.14501953 C-186.03644485 443.24284729 -187.21253815 443.34067505 -188.42427063 443.44146729 C-192.24612662 443.75851984 -196.06835574 444.07078512 -199.890625 444.3828125 C-202.57104534 444.60390917 -205.25144543 444.82523994 -207.93182373 445.04684448 C-213.51572294 445.50797119 -219.09982874 445.96652209 -224.68408203 446.42333984 C-231.13294627 446.95090598 -237.58151095 447.48201608 -244.02992082 448.01510537 C-250.26297695 448.53036177 -256.496186 449.04374199 -262.72948456 449.55605698 C-265.37216135 449.77336633 -268.01480581 449.99106918 -270.6574173 450.2091713 C-274.33560554 450.51236143 -278.01396425 450.81338836 -281.69238281 451.11376953 C-283.33026512 451.24931747 -283.33026512 451.24931747 -285.00123596 451.38760376 C-286.0017247 451.46885498 -287.00221344 451.5501062 -288.03302002 451.63381958 C-288.90084736 451.70496538 -289.7686747 451.77611118 -290.66279984 451.84941292 C-292.77142396 451.98527272 -294.88700364 452 -297 452 C-296.99861731 453.69419681 -296.99861731 453.69419681 -296.99720669 455.42261982 C-296.97520323 482.67915411 -296.95889188 509.93568746 -296.94893467 537.1922289 C-296.94768504 540.60023921 -296.94639061 544.00824949 -296.94506836 547.41625977 C-296.94467489 548.4333079 -296.94467489 548.4333079 -296.94427348 549.47090247 C-296.94026853 559.56825103 -296.93326149 569.66559371 -296.92456055 579.76293945 C-296.87124943 642.84953446 -296.98307066 705.92054483 -298 769 C-302.41419493 769.47654519 -306.82854417 769.95164667 -311.24291992 770.42651367 C-312.47689262 770.55974785 -313.71086533 770.69298203 -314.98223114 770.8302536 C-326.74972007 772.09483727 -338.52797835 773.22025372 -350.3125 774.3125 C-354.88810471 774.73868691 -359.46359848 775.16605558 -364.0390625 775.59375 C-365.22519638 775.70447342 -366.41133026 775.81519684 -367.63340759 775.92927551 C-376.3941182 776.74945237 -385.15244521 777.59252057 -393.91008186 778.44472694 C-398.22226059 778.86392995 -402.53467823 779.28067104 -406.84707546 779.69761944 C-410.34740878 780.03634112 -413.84754917 780.37686137 -417.34732056 780.72134399 C-421.26621641 781.10706903 -425.18581228 781.48536039 -429.10546875 781.86328125 C-430.26368134 781.97865234 -431.42189392 782.09402344 -432.61520386 782.21289062 C-434.25236862 782.36914917 -434.25236862 782.36914917 -435.92260742 782.52856445 C-436.85973068 782.62007278 -437.79685394 782.71158112 -438.76237488 782.80586243 C-441.59073746 782.97545941 -444.37045756 783.01929566 -447.20235157 783.0121336 C-448.10126206 783.01038181 -449.00017255 783.00863002 -449.92632276 783.00682515 C-450.61063625 783.00457285 -451.29494974 783.00232055 -452 783 C-452.96139301 738.45910106 -453.10779395 693.91627618 -453.12939453 649.36669922 C-453.1297588 648.63350428 -453.13012306 647.90030934 -453.13049836 647.14489638 C-453.13999031 627.51053457 -453.13929676 607.87617619 -453.13529945 588.24181306 C-453.13296173 576.52741034 -453.13271284 564.81300899 -453.13381577 553.09860611 C-453.13393034 551.83582105 -453.13393034 551.83582105 -453.13404724 550.54752519 C-453.13435873 547.12756518 -453.13467715 543.70760518 -453.135007 540.28764518 C-453.13804343 508.42282055 -453.13532831 476.55799877 -453.1299101 444.69317458 C-453.12516265 416.55944559 -453.12559543 388.42572114 -453.13037109 360.29199219 C-453.13575712 328.45856727 -453.13783211 296.62514486 -453.13475883 264.79171956 C-453.13443825 261.38222512 -453.1341254 257.97273068 -453.13381577 254.56323624 C-453.13373669 253.7241328 -453.13365761 252.88502936 -453.13357614 252.02049854 C-453.13245195 239.50370482 -453.13374357 226.98691294 -453.13629532 214.47011948 C-453.13918936 200.20587695 -453.13836712 185.94163956 -453.13301457 171.67739765 C-453.13038462 164.43522231 -453.12917066 157.19305527 -453.13266373 149.95088005 C-453.14989961 111.95570169 -452.75822557 73.98660193 -452 36 C-450.19104973 35.8389162 -450.19104973 35.8389162 -448.34555501 35.67457819 C-446.74344771 35.53190552 -445.14134044 35.38923249 -443.53923321 35.24655914 C-442.74673946 35.17598997 -441.95424571 35.1054208 -441.13773701 35.03271317 C-432.01928576 34.22066615 -422.90112897 33.40533959 -413.78302383 32.5894165 C-410.70102063 32.31370952 -407.61898969 32.03831422 -404.53695679 31.76293945 C-375.37205666 29.16264827 -375.37205666 29.16264827 -346.2265625 26.35546875 C-345.0356752 26.23633621 -343.8447879 26.11720367 -342.61781311 25.99446106 C-337.36131977 25.46576276 -332.10617116 24.92639629 -326.85229492 24.37231445 C-325.03304496 24.18566485 -323.21379071 23.99905701 -321.39453125 23.8125 C-320.63375275 23.72852463 -319.87297424 23.64454926 -319.08914185 23.55802917 C-312.06468672 22.84629961 -305.05417919 22.92625099 -298 23 C-296.85080408 78.26547315 -296.87554333 133.52623146 -296.92797339 188.80140984 C-296.93940035 201.07345155 -296.94471108 213.34549401 -296.94967639 225.61753976 C-296.95997154 250.74503241 -296.97741752 275.87251558 -297 301 C-295.19179197 300.79614512 -295.19179197 300.79614512 -293.34705448 300.58817196 C-291.73333297 300.40728211 -290.11960606 300.22644038 -288.50587463 300.04563904 C-287.71517783 299.9563669 -286.92448102 299.86709476 -286.1098237 299.7751174 C-278.32293279 298.90450839 -270.52419937 298.23049146 -262.71484375 297.59765625 C-261.21418257 297.47418903 -259.71353702 297.35053168 -258.21290588 297.22669983 C-254.26456143 296.9016916 -250.31594121 296.58017419 -246.36721802 296.25980377 C-243.92053966 296.06112275 -241.47393249 295.86158563 -239.02734375 295.6618042 C-219.85569928 294.09696986 -200.68283387 292.54720786 -181.5 291.125 C-180.68554413 291.06369904 -179.87108826 291.00239807 -179.0319519 290.9392395 C-176.78197503 290.77080801 -174.53171445 290.60708283 -172.28125 290.4453125 C-171.07533203 290.35781738 -169.86941406 290.27032227 -168.62695312 290.18017578 C-165.8278218 290.04112362 -163.07315312 289.98136092 -160.27331543 289.98873901 C-159.47073051 289.99036482 -158.6681456 289.99199062 -157.84123993 289.9936657 C-156.92982616 289.99680118 -156.92982616 289.99680118 -156 290 C-156.00138269 288.13064018 -156.00138269 288.13064018 -156.00279331 286.22351551 C-156.02454311 256.50963625 -156.04098618 226.79575908 -156.05106533 197.08187379 C-156.05231574 193.40899332 -156.05361009 189.73611287 -156.05493164 186.06323242 C-156.05532511 184.96662015 -156.05532511 184.96662015 -156.05572652 183.8478541 C-156.06005467 172.07573186 -156.06792619 160.30361461 -156.0771528 148.53149531 C-156.08656932 136.41423261 -156.09207237 124.29697248 -156.09408849 112.17970628 C-156.09532665 105.38965434 -156.09828063 98.5996128 -156.10573006 91.80956459 C-156.16316877 36.68074011 -156.16316877 36.68074011 -155 14 C-123.18298804 10.96023319 -91.36509564 7.93003939 -59.54318237 4.9419632 C-57.52787106 4.75261857 -55.5125885 4.56297077 -53.49731445 4.37322998 C-40.65687964 3.16500384 -27.81559162 1.96650805 -14.96875 0.828125 C-14.02680786 0.74326843 -13.08486572 0.65841187 -12.11437988 0.57098389 C-11.24583374 0.49502991 -10.3772876 0.41907593 -9.48242188 0.34082031 C-8.73279175 0.2745343 -7.98316162 0.20824829 -7.21081543 0.13995361 C-4.80201978 -0.01253295 -2.41305504 -0.00893684 0 0 Z " fill="#FEFEFE" transform="translate(607,345)"/>
<path d="M0 0 C0 47.85 0 95.7 0 145 C-10.16828455 146.12980939 -20.13812622 147.22461184 -30.3125 147.8125 C-50.12360149 149.07162804 -69.87186019 151.09804039 -89.62875366 153.004776 C-98.11816904 153.82318992 -106.60957139 154.61897142 -115.1015625 155.41015625 C-126.51018762 156.47399697 -137.91547735 157.56963489 -149.31924248 158.68433952 C-151.92421801 158.93887399 -154.52924615 159.192863 -157.1342926 159.44667053 C-158.43755414 159.57366128 -158.43755414 159.57366128 -159.7671442 159.70321751 C-161.53456544 159.87543142 -163.30198781 160.04763379 -165.06941128 160.21982479 C-169.49787533 160.65152099 -173.92619486 161.08461621 -178.35424805 161.52050781 C-182.77406067 161.95547493 -187.19426624 162.38626229 -191.61471367 162.81472778 C-193.23773277 162.97271172 -194.86062775 163.13197983 -196.48335457 163.29293823 C-215.63255937 165.19072271 -234.80728332 166.52363718 -254 168 C-254 214.2 -254 260.4 -254 308 C-245.09 307.01 -236.18 306.02 -227 305 C-220.71865071 304.37764907 -214.43796743 303.76788973 -208.15258789 303.19067383 C-206.45379355 303.03279249 -204.75501794 302.87470942 -203.05625916 302.71644592 C-198.54502133 302.29686028 -194.03349963 301.88041492 -189.52188039 301.46495271 C-186.68983802 301.20400737 -183.85786251 300.94234787 -181.02590752 300.68045616 C-171.11134169 299.76361569 -161.19653638 298.84941761 -151.28149414 297.93774414 C-142.08702702 297.0922529 -132.89313172 296.24072821 -123.69947249 295.38650113 C-115.74757309 294.64792656 -107.79528912 293.91359498 -99.84269708 293.18251628 C-95.11741931 292.74804975 -90.392311 292.31191389 -85.66758919 291.87143898 C-81.23790431 291.45861034 -76.80776113 291.05109774 -72.37722206 290.64754295 C-70.76144326 290.49948419 -69.14583139 290.34958929 -67.53041458 290.19763184 C-65.30973955 289.98904018 -63.08853202 289.787366 -60.86708069 289.5872345 C-59.63007447 289.47314145 -58.39306826 289.3590484 -57.118577 289.24149799 C-51.75432879 288.92695849 -46.37346201 289 -41 289 C-41 338.17 -41 387.34 -41 438 C-65.24641637 440.30918251 -65.24641637 440.30918251 -76.48799133 441.24197388 C-80.02681344 441.53632262 -83.56554888 441.83165184 -87.10417175 442.12838745 C-91.03093679 442.45751498 -94.95775214 442.78603194 -98.88461304 443.11401367 C-109.39858743 443.99227945 -119.91223402 444.87444928 -130.42578125 445.7578125 C-131.50740351 445.84866875 -132.58902576 445.93952499 -133.70342445 446.03313446 C-150.40171587 447.43654835 -167.09795659 448.86281038 -183.79296875 450.3046875 C-184.87114994 450.39775806 -185.94933113 450.49082863 -187.06018448 450.58671951 C-197.51083682 451.4889473 -207.96132278 452.39305449 -218.41141796 453.30171394 C-222.24420448 453.63467901 -226.0771035 453.9663355 -229.91002846 454.29770279 C-231.68865758 454.45181263 -233.46723233 454.60655137 -235.24574852 454.76195908 C-237.66915442 454.97370244 -240.0927306 455.18338093 -242.51635742 455.39257812 C-243.57566467 455.48596183 -243.57566467 455.48596183 -244.65637207 455.58123207 C-247.7928664 455.84995799 -250.84733347 456 -254 456 C-253.99861731 457.97532605 -253.99861731 457.97532605 -253.99720669 459.99055767 C-253.97537111 491.51765024 -253.95897193 523.04474076 -253.94893467 554.57183916 C-253.94768452 558.48417209 -253.94639015 562.39650499 -253.94506836 566.30883789 C-253.94467489 567.47675358 -253.94467489 567.47675358 -253.94427348 568.66826353 C-253.9399666 581.14195653 -253.93210768 593.61564474 -253.9228472 606.08933493 C-253.91336993 618.96608187 -253.90791527 631.84282637 -253.90591151 644.71957666 C-253.90468322 651.91951808 -253.90180107 659.11944961 -253.89426994 666.31938744 C-253.85777661 702.22439205 -254.16143853 738.10393147 -255 774 C-256.02810589 774.08526748 -256.02810589 774.08526748 -257.0769816 774.17225754 C-260.21907395 774.43301074 -263.36113169 774.69417872 -266.50318909 774.95535278 C-267.58127287 775.04475789 -268.65935666 775.134163 -269.77010965 775.22627735 C-277.81868735 775.89571781 -285.861715 776.60779439 -293.90234375 777.3671875 C-295.81740219 777.54664162 -295.81740219 777.54664162 -297.77114868 777.72972107 C-301.13744057 778.04529286 -304.50357725 778.36249008 -307.8696785 778.68008804 C-309.96726382 778.87780552 -312.06490556 779.07491345 -314.16256714 779.27182007 C-328.02989334 780.57355641 -341.89643492 781.88219411 -355.7578125 783.24609375 C-356.70320389 783.33904724 -357.64859528 783.43200073 -358.62263489 783.527771 C-362.86660646 783.94584628 -367.11020755 784.36724586 -371.35327148 784.79443359 C-393.71776357 787.03080764 -393.71776357 787.03080764 -404.73390198 787.00996399 C-405.72106988 787.00852544 -406.70823778 787.00708689 -407.72531986 787.00560474 C-408.47596431 787.00375518 -409.22660875 787.00190561 -410 787 C-410.73125678 745.38223196 -411.15142926 703.77926831 -411.13166763 662.15438004 C-411.12834824 654.69750247 -411.1311312 647.24062927 -411.13387203 639.78375189 C-411.13904921 625.19055216 -411.13871787 610.5973569 -411.13579312 596.00415677 C-411.13324798 583.23799194 -411.13263437 570.47182872 -411.13381577 557.70566368 C-411.13389215 556.84915679 -411.13396854 555.9926499 -411.13404724 555.11018826 C-411.13435872 551.63091988 -411.13467713 548.1516515 -411.135007 544.67238312 C-411.1380449 512.24087118 -411.13532587 479.80936203 -411.1299101 447.37785052 C-411.12516213 418.72772893 -411.12559555 390.07761179 -411.13037109 361.42749023 C-411.13575399 329.02756151 -411.13783385 296.62763524 -411.13475883 264.22770613 C-411.13443824 260.75925839 -411.13412539 257.29081065 -411.13381577 253.8223629 C-411.13373669 252.96871876 -411.13365761 252.11507462 -411.13357614 251.23556248 C-411.13245072 238.48732572 -411.13374595 225.73909077 -411.13629532 212.99085426 C-411.13918573 198.46731223 -411.13837449 183.94377525 -411.13301457 169.42023382 C-411.13037993 162.04288213 -411.12917949 154.6655386 -411.13266373 147.28818703 C-411.14900137 110.51291424 -410.80079296 73.76653471 -410 37 C-405.61018523 36.58091671 -401.22036837 36.16185541 -396.83055115 35.74279785 C-395.59676019 35.62501102 -394.36296924 35.5072242 -393.09179068 35.38586807 C-383.76057529 34.4951141 -374.42923882 33.60564884 -365.09765625 32.71875 C-364.00439876 32.614842 -364.00439876 32.614842 -362.88905525 32.50883484 C-357.59273854 32.00552056 -352.29638325 31.50261357 -347 31 C-346.28411461 30.93206238 -345.56822922 30.86412476 -344.83065033 30.79412842 C-335.84524121 29.94157303 -326.85956028 29.09194885 -317.87353516 28.24591064 C-315.32644301 28.00588647 -312.77940172 27.76532177 -310.23242188 27.52410889 C-294.89742399 26.07250253 -279.55787279 24.69722903 -264.21096039 23.37877464 C-240.09701132 21.30556475 -216.00459478 19.03242254 -191.91348267 16.71032715 C-180.37783196 15.59864577 -168.84141318 14.49499637 -157.3046875 13.39453125 C-155.61699344 13.23353502 -155.61699344 13.23353502 -153.89520454 13.06928635 C-135.13061829 11.28118007 -116.36116547 9.5747709 -97.57955933 7.97454834 C-84.47003518 6.8575051 -71.37069431 5.66329122 -58.27734375 4.37109375 C-56.84117213 4.22975803 -55.40499965 4.0884311 -53.96882629 3.94711304 C-48.37922054 3.39624344 -42.78966452 2.84516329 -37.20181274 2.2767334 C-33.41107934 1.89159175 -29.61967231 1.51374943 -25.828125 1.13671875 C-24.72037216 1.0213829 -23.61261932 0.90604706 -22.47129822 0.78721619 C-14.87041442 0.03916103 -7.72200968 0 0 0 Z " fill="#FEFEFE" transform="translate(1343,274)"/>
<path d="M0 0 C0 50.49 0 100.98 0 153 C-18.3801311 155.29751639 -18.3801311 155.29751639 -25.60766602 155.89794922 C-26.85979071 156.00589436 -26.85979071 156.00589436 -28.13721085 156.1160202 C-30.84253374 156.34851712 -33.54820459 156.57664479 -36.25390625 156.8046875 C-38.19018351 156.97023643 -40.12643684 157.13606545 -42.06266785 157.30215454 C-47.17863929 157.74022162 -52.29492525 158.17449825 -57.41130066 158.6078186 C-62.68549538 159.05500285 -67.95943427 159.50518443 -73.23339844 159.95507812 C-79.47192212 160.48704617 -85.71047908 161.0186119 -91.94918823 161.54840088 C-103.05444273 162.49158939 -114.15878447 163.44393204 -125.26171875 164.4140625 C-128.46912775 164.69294764 -131.67656028 164.9715603 -134.88400269 165.25006104 C-136.77109464 165.41463126 -138.65808148 165.58041208 -140.54495239 165.74749756 C-143.06614011 165.97053711 -145.58768529 166.18897191 -148.109375 166.40625 C-149.13879463 166.49937973 -149.13879463 166.49937973 -150.18901062 166.59439087 C-153.71520328 166.89334091 -157.20519673 167.0274815 -160.74127197 167.01501465 C-161.54175083 167.01284691 -162.34222969 167.01067917 -163.16696548 167.00844574 C-163.77186687 167.00565865 -164.37676826 167.00287155 -165 167 C-164.99962028 167.99966756 -164.99924056 168.99933511 -164.99884933 170.02929562 C-164.98206903 214.38682384 -164.96665837 258.7443524 -164.95765686 303.10188293 C-164.9575188 303.78042558 -164.95738075 304.45896823 -164.95723851 305.15807278 C-164.95424103 319.92790051 -164.95147151 334.69772826 -164.94893467 349.46755607 C-164.94768805 356.71754715 -164.94639139 363.96753823 -164.94506836 371.2175293 C-164.9449376 371.93873916 -164.94480684 372.65994903 -164.94467212 373.40301374 C-164.94046058 396.50401931 -164.93298828 419.60502232 -164.92370278 442.70602635 C-164.91412612 466.57649323 -164.90808212 490.44695871 -164.90608501 514.31742747 C-164.90579713 517.73989603 -164.9054715 521.16236459 -164.90512276 524.58483315 C-164.90505533 525.25799407 -164.90498791 525.931155 -164.90491844 526.62471475 C-164.9038366 536.53615471 -164.89988754 546.44759125 -164.89426994 556.35902977 C-164.85542084 626.91180852 -165.21251679 697.45146143 -166 768 C-168.86918136 768.3204006 -171.7384096 768.64037115 -174.60766602 768.96009827 C-175.81654354 769.09516021 -175.81654354 769.09516021 -177.04984283 769.23295069 C-183.34112744 769.9334943 -189.63602231 770.58127526 -195.9375 771.18359375 C-197.49324989 771.33371918 -197.49324989 771.33371918 -199.08042908 771.48687744 C-202.38680545 771.80530756 -205.69338415 772.12156713 -209 772.4375 C-210.13841339 772.54671783 -211.27682678 772.65593567 -212.44973755 772.76846313 C-229.2766494 774.38220038 -246.108413 775.92215188 -262.94921875 777.3828125 C-269.052485 777.91296392 -275.15202361 778.47483374 -281.25 779.0625 C-282.45861694 779.17863647 -282.45861694 779.17863647 -283.69165039 779.29711914 C-285.28630199 779.45045415 -286.88094718 779.60385572 -288.47558594 779.75732422 C-293.27489369 780.21868901 -298.07452757 780.67590045 -302.875 781.125 C-303.78540039 781.21273682 -304.69580078 781.30047363 -305.63378906 781.39086914 C-306.49456055 781.47071045 -307.35533203 781.55055176 -308.2421875 781.6328125 C-308.9935498 781.70387207 -309.74491211 781.77493164 -310.51904297 781.84814453 C-313.68178633 782.04173107 -316.83202485 782.00898884 -320 782 C-320.89826247 699.06564233 -321.10017586 616.13409749 -321.09765625 533.1953125 C-321.09762838 531.92653633 -321.09760051 530.65776016 -321.09757179 529.35053623 C-321.09663192 496.64893765 -321.08602071 463.94734451 -321.07202661 431.24574924 C-321.06399589 412.26669768 -321.05859421 393.28764664 -321.05493164 374.30859375 C-321.05480011 373.63148226 -321.05466859 372.95437077 -321.05453308 372.25674074 C-321.05321359 365.45162883 -321.05193792 358.64651692 -321.05069422 351.84140499 C-321.04040435 295.560934 -321.02290444 239.2804672 -321 183 C-324.65847807 183.318117 -328.31695574 183.6362386 -331.97543335 183.95436096 C-333.00210082 184.0436331 -334.02876829 184.13290524 -335.0865469 184.2248826 C-347.05289014 185.2654192 -359.01921074 186.30616852 -370.98476601 187.35573483 C-374.66405395 187.6784144 -378.34341169 188.00024643 -382.02294922 188.32006836 C-399.56777724 189.84568201 -417.09078628 191.48797146 -434.60546875 193.33276367 C-442.11957832 194.1226762 -449.63854066 194.84437703 -457.16479492 195.50805664 C-459.26070697 195.69399452 -461.3558996 195.88707679 -463.45117188 196.08007812 C-464.83589975 196.2035491 -466.22066397 196.32661334 -467.60546875 196.44921875 C-468.79293701 196.55580811 -469.98040527 196.66239746 -471.20385742 196.7722168 C-475.79494079 197.04769952 -480.40065904 197 -485 197 C-485 146.51 -485 96.02 -485 44 C-482.08113143 43.27028286 -479.68385473 42.80821962 -476.73925781 42.56689453 C-475.90050613 42.49643921 -475.06175446 42.42598389 -474.19758606 42.35339355 C-473.29191391 42.28060181 -472.38624176 42.20781006 -471.453125 42.1328125 C-470.50374557 42.05373657 -469.55436615 41.97466064 -468.57621765 41.89318848 C-466.53422984 41.72328799 -464.49212596 41.55477805 -462.44992065 41.38751221 C-457.03496611 40.94328505 -451.62104984 40.48671896 -446.20703125 40.03125 C-445.13340836 39.94114655 -444.05978546 39.85104309 -442.95362854 39.75820923 C-425.75569427 38.31138953 -408.57955855 36.64187626 -391.40254211 34.9677887 C-385.35512084 34.37842766 -379.30764017 33.78967894 -373.2600975 33.20156479 C-371.87958294 33.06730663 -370.49907197 32.93301155 -369.11856461 32.79867935 C-351.79815437 31.11361233 -334.47738711 29.45740995 -317.13406372 28.02397156 C-308.10452805 27.27384007 -299.08269528 26.46177427 -290.0625 25.60546875 C-287.24695493 25.33958441 -284.4313436 25.07440568 -281.61572266 24.80932617 C-280.90232538 24.74211302 -280.18892811 24.67489986 -279.45391273 24.60564995 C-272.54902521 23.9558846 -265.64295254 23.3192681 -258.73655319 22.68580055 C-256.70216897 22.4991957 -254.66780806 22.31233848 -252.63345337 22.12541199 C-247.18116138 21.62450835 -241.72885794 21.12373609 -236.27636719 20.625 C-220.54316332 19.18544298 -204.81657048 17.69765919 -189.0973053 16.11140442 C-175.50806906 14.74243758 -161.91112129 13.45935715 -148.3125 12.1875 C-146.95656036 12.06036479 -145.60062372 11.93319751 -144.24468994 11.80599976 C-128.16737623 10.29851894 -112.08772154 8.81933258 -96.00390625 7.3828125 C-95.26237368 7.31656237 -94.5208411 7.25031223 -93.75683784 7.18205452 C-86.57724836 6.54091902 -79.39746071 5.90209706 -72.21712589 5.26936054 C-68.92329841 4.9788563 -65.62962257 4.68664505 -62.3359375 4.39453125 C-61.06479599 4.28245834 -59.79365448 4.17038544 -58.48399353 4.05491638 C-51.97444863 3.47364534 -45.47202512 2.85106561 -38.97363281 2.15771484 C-37.63986298 2.01721842 -36.30609224 1.87673066 -34.97232056 1.73625183 C-32.5018792 1.47327917 -30.03218598 1.20311105 -27.56356812 0.92353821 C-18.21799061 -0.07009864 -9.55836942 0 0 0 Z " fill="#FEFEFE" transform="translate(1017,130)"/>
<path d="M0 0 C1.13225828 -0.02565792 2.26451657 -0.05131584 3.43108571 -0.07775128 C14.0194055 -0.02302901 23.37797414 3.69669954 32.62875366 8.63192749 C33.72248417 9.20651451 34.81621468 9.78110153 35.94308853 10.37310028 C37.06299053 10.96392647 38.18289253 11.55475266 39.33673096 12.16348267 C41.72915583 13.37249834 44.12340732 14.57701406 46.52053833 15.77658081 C51.49084204 18.27544809 56.4364594 20.81803516 61.36749268 23.39346313 C67.02451863 26.34775083 72.70895467 29.24218529 78.41317952 32.10416579 C83.97313833 34.89397666 89.51863965 37.71123634 95.05602646 40.54557037 C97.38250486 41.73520624 99.71146819 42.91999687 102.04306412 44.09957123 C129.61863479 58.11971783 129.61863479 58.11971783 134.76641846 67.55410767 C136.66996993 74.43978447 136.30859183 81.5574376 136.15704346 88.63223267 C136.15709988 90.65533116 136.16245682 92.67843578 136.17285156 94.70150757 C136.18595645 99.9896696 136.12774255 105.27465727 136.05395508 110.56222534 C135.99131471 115.97221458 135.99709929 121.3821008 135.99688721 126.79238892 C135.98650697 137.3806239 135.90067784 147.96676878 135.76641846 158.55410767 C136.62612842 158.47680168 137.48583838 158.3994957 138.37160015 158.31984711 C159.42706796 156.42741728 180.4837799 154.54940338 201.54191113 152.68683624 C211.72601871 151.78572446 221.90967282 150.87998731 232.09234619 149.96279907 C240.98211721 149.16207942 249.8726586 148.37060983 258.76418382 147.58960199 C263.45891828 147.17692062 268.15318374 146.76005153 272.84654808 146.33204651 C283.74730835 145.34045615 294.6485518 144.44077789 305.5698421 143.70673275 C307.67907492 143.56017657 309.78642349 143.39719399 311.89412117 143.2301712 C331.91748477 141.76383402 345.60595192 145.88286363 363.23907471 155.16348267 C365.63301005 156.37231503 368.02871498 157.57682468 370.4271698 158.77658081 C375.4027242 161.27671876 380.35442799 163.81928988 385.29205322 166.39346313 C390.95705154 169.34652171 396.64883962 172.24117429 402.35983092 175.10416579 C407.92452241 177.89408979 413.47478023 180.7114562 419.01708794 183.54557037 C421.346298 184.73532853 423.67805208 185.92012125 426.01249886 187.09957123 C429.27687295 188.75684213 432.52328892 190.4450437 435.7666626 192.14297485 C436.70654022 192.61412216 437.64641785 193.08526947 438.61477661 193.57069397 C446.44732653 197.74107561 456.58103116 203.68824837 459.43817055 212.66455984 C460.57180253 218.672827 460.40144547 224.73106971 460.31915283 230.81973267 C460.33543875 232.85131325 460.35681929 234.88285836 460.38287354 236.91433716 C460.43732911 242.40275343 460.41648107 247.88844682 460.37832451 253.37690735 C460.34781022 259.1368917 460.37615561 264.89665259 460.3949585 270.65664673 C460.41675253 280.32731728 460.38812105 289.99688592 460.33087158 299.66738892 C460.26556794 310.82682221 460.28672488 321.98362436 460.35278845 333.14299393 C460.40735485 342.74696905 460.41487591 352.35015492 460.38352442 361.95423508 C460.36487514 367.68038778 460.36215381 373.40530621 460.40196228 379.13137817 C460.43679347 384.5171082 460.41229994 389.89946771 460.3432312 395.28483582 C460.32744949 397.25351887 460.33177659 399.22248879 460.35838318 401.1910553 C460.55899594 417.5500329 460.55899594 417.5500329 454.74103975 424.13497972 C448.72039097 430.13253914 443.22393871 432.30375477 434.66790771 432.39880371 C430.15044814 432.51710832 425.68576508 432.88805625 421.18696213 433.30614567 C418.01092238 433.5990838 414.83363906 433.86669963 411.65478516 434.12724304 C407.03218634 434.50617432 402.40980807 434.88748503 397.78771973 435.27259827 C390.36421764 435.8904865 382.94034816 436.50388157 375.51641846 437.11660767 C366.86481398 437.83070129 358.21337256 438.54666325 349.56232452 439.26746941 C346.11197056 439.55397198 342.66134376 439.83701228 339.21069336 440.11991882 C337.10262664 440.29515865 334.99457332 440.47055976 332.88653564 440.64614868 C331.45276833 440.7622776 331.45276833 440.7622776 329.99003601 440.88075256 C325.85284692 441.22861227 321.81694524 441.59270824 317.76641846 442.55410767 C318.89013351 443.10153122 320.01384857 443.64895477 321.1716156 444.21296692 C331.82114557 449.40528813 342.45642239 454.6258428 353.07879162 459.87351513 C358.53879967 462.56976768 364.00315409 465.25624835 369.47906494 467.92007446 C374.77515853 470.49688207 380.05769675 473.09977024 385.33226967 475.72033119 C387.33490124 476.70974593 389.34204732 477.69008287 391.35390282 478.66060448 C394.19728326 480.03428498 397.02206749 481.44103713 399.84527588 482.85562134 C400.65880524 483.23901672 401.47233459 483.62241211 402.31051636 484.01742554 C410.35471862 488.13028421 420.46111628 494.76480132 423.50167143 503.71948874 C424.70693783 509.71247444 424.52746935 515.75751417 424.43267822 521.84146118 C424.44868526 523.86334118 424.47022774 525.8851837 424.49684143 527.9069519 C424.55153743 533.36451951 424.52490007 538.81882764 424.47971845 544.27637219 C424.44289764 550.0056483 424.47071293 555.73468635 424.48832703 561.46400452 C424.50736354 571.0817112 424.47248785 580.69810984 424.40631104 590.31558228 C424.33070458 601.41315132 424.34485892 612.5079077 424.40613705 623.60550171 C424.46280049 634.31070819 424.45156328 645.01486161 424.41114616 655.72010612 C424.3954173 660.26281359 424.40394741 664.80450068 424.43252754 669.34713936 C424.46344715 674.702568 424.43484925 680.0545468 424.36152458 685.40953064 C424.34415522 687.36690937 424.34686808 689.32459248 424.37184143 691.28188896 C424.55894714 707.5638404 424.55894714 707.5638404 418.46192259 714.15785497 C412.79349289 719.57177493 408.73359141 721.68120889 400.90863037 722.31974792 C399.67699276 722.42516015 399.67699276 722.42516015 398.42047358 722.53270191 C395.65394516 722.76845918 392.88695594 722.9982919 390.11993408 723.22817993 C388.14258392 723.39546103 386.16526423 723.56310258 384.18797302 723.7310791 C378.80620722 724.18721716 373.42402217 724.63822395 368.04174614 725.08829618 C362.41966041 725.55924178 356.79795699 726.03470756 351.1762085 726.50965881 C341.73401235 727.30673512 332.29156544 728.10078097 322.84893799 728.89273071 C309.51825531 730.01077935 296.18805823 731.1345361 282.85794163 732.25931084 C273.64174705 733.03674253 264.42543644 733.81279719 255.20910454 734.58859897 C252.96976327 734.77710772 250.73042536 734.96565653 248.49109077 735.15424466 C242.10839307 735.69172641 235.72562491 736.22835572 229.3427372 736.76357651 C227.40525752 736.92615772 225.46780158 737.08902214 223.53037071 737.25218391 C220.89504779 737.47405793 218.25964039 737.69489911 215.62420654 737.91545105 C214.84931586 737.98091505 214.07442517 738.04637905 213.27605295 738.11382681 C207.99494493 738.55410767 207.99494493 738.55410767 205.76641846 738.55410767 C205.77325342 739.52167673 205.77325342 739.52167673 205.78022647 740.50879264 C206.04892338 778.76274498 206.25473706 817.01657531 206.37920241 855.27128069 C206.3942104 859.8673483 206.40974231 864.463414 206.42559814 869.05947876 C206.42874587 869.97444977 206.43189359 870.88942078 206.43513671 871.83211818 C206.48731397 886.63588795 206.58190658 901.43909696 206.69225201 916.24253437 C206.80457976 931.43896408 206.87114658 946.63510068 206.89548039 961.83192849 C206.91192411 971.20511351 206.96380191 980.57671349 207.06141606 989.94941041 C207.12498447 996.38185426 207.14398991 1002.81348209 207.12843499 1009.24621704 C207.12076802 1012.95502766 207.13228046 1016.661075 207.19688416 1020.36939049 C207.60437678 1044.93069229 207.60437678 1044.93069229 201.47587705 1051.78936124 C196.33525344 1056.55786407 192.09964051 1058.62444062 185.10670471 1059.28178406 C184.41380771 1059.34797532 183.72091071 1059.41416658 183.00701684 1059.48236364 C180.67236876 1059.70429368 178.3372146 1059.92034822 176.00201416 1060.13638306 C174.3310011 1060.29386553 172.66001684 1060.45165391 170.98905945 1060.60972595 C165.47399677 1061.12977955 159.95813119 1061.64102166 154.44219971 1062.15176392 C152.53187384 1062.32910204 150.62155167 1062.50647992 148.71123314 1062.68389702 C140.73452419 1063.42418359 132.75762405 1064.1623463 124.78017902 1064.8946619 C113.43439013 1065.93619539 102.08985736 1066.98955025 90.74684459 1068.06090933 C82.73382859 1068.81674329 74.71956916 1069.55838298 66.70432919 1070.29025072 C61.94309937 1070.72533035 57.18254291 1071.1657968 52.42324257 1071.62153816 C33.10150013 1073.46648067 13.85949744 1074.88722832 -5.55706787 1075.0609436 C-6.76685147 1075.0820881 -6.76685147 1075.0820881 -8.00107515 1075.10365975 C-23.085698 1075.3310469 -34.23944784 1071.48600671 -47.23358154 1063.74160767 C-49.07308376 1062.71895533 -50.91688212 1061.70399366 -52.76483154 1060.69668579 C-56.43667613 1058.6877883 -60.08668507 1056.64538234 -63.72796631 1054.58169556 C-72.98054826 1049.41063915 -82.63260094 1045.03157312 -92.23358154 1040.55410767 C-97.98336745 1037.86048465 -103.72086489 1035.14417338 -109.43499756 1032.37564087 C-111.02008605 1031.6143198 -112.61039612 1030.86378353 -114.20550537 1030.12368774 C-116.60559259 1029.00730598 -118.9842803 1027.85296966 -121.36248779 1026.69082642 C-122.04928116 1026.3819902 -122.73607452 1026.07315399 -123.44367981 1025.75495911 C-131.61542273 1021.65615188 -141.97494646 1014.25472825 -144.99979591 1005.28100395 C-146.15451791 999.19581932 -145.84586196 993.09436782 -145.60076904 986.93692017 C-145.57459722 984.98402062 -145.55469714 983.03102798 -145.54074097 981.07800293 C-145.48774522 975.98245198 -145.35067389 970.89265275 -145.19488525 965.79934692 C-145.05063995 960.58427739 -144.98751318 955.36826103 -144.91717529 950.15176392 C-144.7678493 939.95004279 -144.52951248 929.75255672 -144.23358154 919.55410767 C-144.89358154 919.88410767 -145.55358154 920.21410767 -146.23358154 920.55410767 C-147.79408596 920.77536973 -149.36186172 920.94629933 -150.93122864 921.09196472 C-151.92225586 921.18589508 -152.91328308 921.27982544 -153.93434143 921.37660217 C-155.57145332 921.52549644 -155.57145332 921.52549644 -157.24163818 921.67739868 C-158.3881485 921.78483398 -159.53465881 921.89226929 -160.71591187 922.00296021 C-164.52481935 922.3587316 -168.33424684 922.70854947 -172.14373779 923.05801392 C-174.78735014 923.30297298 -177.43093965 923.54816912 -180.07450867 923.79359436 C-185.6268597 924.30839855 -191.17951878 924.81977571 -196.73236084 925.32925415 C-203.13560211 925.91681006 -209.53828131 926.51021301 -215.94069582 927.10670525 C-221.44458528 927.61932402 -226.94876843 928.12869539 -232.4532041 928.63541549 C-235.73724081 928.93773814 -239.02113327 929.24148563 -242.30482674 929.54751778 C-245.97611726 929.88908168 -249.64785828 930.22532534 -253.31976318 930.56021118 C-254.3970015 930.66149826 -255.47423981 930.76278534 -256.5841217 930.86714172 C-262.49670374 931.40010238 -268.29693706 931.65230678 -274.23358154 931.55410767 C-274.22252003 932.39341198 -274.21145851 933.23271629 -274.2000618 934.09745407 C-273.93461146 954.55539725 -273.73626319 975.01304212 -273.61183548 995.47234726 C-273.55005708 1005.36660506 -273.46589307 1015.25971071 -273.32830811 1025.15322876 C-273.20839178 1033.78036332 -273.1312113 1042.40666327 -273.10451961 1051.03460813 C-273.0889247 1055.60013028 -273.05250085 1060.1632657 -272.96482086 1064.72801971 C-272.88280603 1069.03308572 -272.85834819 1073.33480424 -272.87628937 1077.64057732 C-272.87301217 1079.21280367 -272.84945967 1080.7851524 -272.80311584 1082.35669899 C-272.56927616 1090.70207717 -273.44448817 1097.2439468 -279.31872559 1103.46090698 C-285.43300725 1109.20961203 -291.96627321 1110.28992985 -300.16882157 1110.48722601 C-302.84935589 1110.57405381 -305.50649775 1110.84427938 -308.1733135 1111.12049317 C-311.64814286 1111.4778434 -315.12927236 1111.76483657 -318.60931396 1112.0663147 C-320.17725446 1112.20432848 -321.74517585 1112.34255955 -323.31307983 1112.48098755 C-328.40467094 1112.92925709 -333.49681914 1113.3709897 -338.58905029 1113.81192017 C-340.36634173 1113.96607831 -342.1436327 1114.12024172 -343.92092323 1114.27441025 C-351.33725144 1114.91719791 -358.75373099 1115.55819214 -366.17061901 1116.19449043 C-376.66766686 1117.09510616 -387.16367587 1118.00622202 -397.65848464 1118.9325763 C-405.10889932 1119.58930502 -412.56034236 1120.23345932 -420.012595 1120.86898696 C-424.42688359 1121.24574285 -428.8406103 1121.6272641 -433.25328636 1122.02249527 C-451.34989064 1123.63883536 -469.36506807 1124.84082853 -487.53997803 1124.94937134 C-488.70383359 1124.96328568 -488.70383359 1124.96328568 -489.89120138 1124.97748113 C-502.16332537 1125.09794435 -511.63196693 1123.33989971 -522.10858154 1116.74160767 C-523.49589832 1115.95187767 -524.88797633 1115.17046118 -526.28436279 1114.3968811 C-529.02533009 1112.87024682 -531.74313639 1111.31217439 -534.44744873 1109.72158813 C-539.87333074 1106.56600666 -545.53966881 1103.93543545 -551.23358154 1101.30410767 C-552.96378087 1100.48858663 -554.69301625 1099.67101598 -556.42108154 1098.85098267 C-557.20612061 1098.47908813 -557.99115967 1098.1071936 -558.79998779 1097.72402954 C-562.97033007 1095.71918602 -567.10291466 1093.63921558 -571.23358154 1091.55410767 C-571.13303467 1093.51090454 -571.13303467 1093.51090454 -571.03045654 1095.50723267 C-570.71851784 1111.1056603 -570.71851784 1111.1056603 -576.49822998 1117.20352173 C-581.85519169 1122.12892435 -585.48260262 1124.5904748 -592.84860229 1125.24382019 C-593.53671018 1125.3059279 -594.22481806 1125.36803561 -594.93377769 1125.43202537 C-597.25228905 1125.64018651 -599.57128078 1125.84239466 -601.89031982 1126.04458618 C-603.54985726 1126.19221028 -605.20936693 1126.34014673 -606.86885071 1126.4883728 C-612.34667134 1126.97598303 -617.82525531 1127.45469853 -623.30389404 1127.93301392 C-625.20181571 1128.09919918 -627.09973312 1128.26543311 -628.99764633 1128.43171501 C-637.95145208 1129.2156232 -646.9056057 1129.99540849 -655.86019242 1130.77034432 C-666.10250311 1131.65686926 -676.34346733 1132.55723174 -686.5834657 1133.47006851 C-694.54479259 1134.17880671 -702.50725489 1134.87377705 -710.47061527 1135.55928367 C-715.19994338 1135.96671484 -719.92865496 1136.37932799 -724.6562233 1136.80673409 C-744.13488859 1138.56257784 -763.53430798 1139.86897008 -783.0980835 1140.01992798 C-783.93202928 1140.03251841 -784.76597506 1140.04510884 -785.62519193 1140.05808079 C-800.10887989 1140.2451415 -810.82546932 1137.32737138 -823.29608154 1129.74160767 C-825.07254109 1128.74990438 -826.85391775 1127.76696362 -828.63983154 1126.79238892 C-832.0659183 1124.91261927 -835.46767796 1122.99905576 -838.85125732 1121.04385376 C-844.01257465 1118.07935751 -849.31892613 1115.51957486 -854.73358154 1113.05410767 C-856.44107286 1112.24270135 -858.14670889 1111.42738284 -859.85076904 1110.60879517 C-863.57977444 1108.82105491 -867.31301466 1107.04277079 -871.05096436 1105.27383423 C-875.71830919 1103.06087361 -880.36907016 1100.8152333 -885.01361084 1098.55484009 C-886.87856206 1097.65301222 -888.74808286 1096.7605604 -890.62249756 1095.87857056 C-893.28988369 1094.62150439 -895.93806344 1093.32985333 -898.58514404 1092.03067017 C-899.75292892 1091.49471725 -899.75292892 1091.49471725 -900.94430542 1090.94793701 C-903.52443306 1089.65416158 -905.82879721 1088.15374592 -908.23358154 1086.55410767 C-909.85269791 1085.55393933 -909.85269791 1085.55393933 -911.50452369 1084.53356558 C-916.66595466 1080.80595403 -920.4405694 1076.78652489 -921.98847719 1070.4770581 C-923.16210414 1061.56178261 -923.0017 1052.57273619 -922.89745839 1043.59854888 C-922.86344004 1039.4281986 -922.90512461 1035.25846891 -922.93695587 1031.08819586 C-922.98229331 1023.78584068 -922.97946748 1016.48474558 -922.94475174 1009.18235016 C-922.89327045 998.32370295 -922.91625392 987.46609399 -922.95379341 976.60743539 C-923.01835172 957.21336936 -923.00874129 937.81987279 -922.96772602 918.42577413 C-922.9320308 901.45439608 -922.92092913 884.48322319 -922.93424797 867.51181221 C-922.93509585 866.38596104 -922.93594373 865.26010988 -922.93681731 864.10014201 C-922.94028295 859.52992878 -922.94385096 854.95971564 -922.94758052 850.38950262 C-922.98213302 807.52048501 -922.94168782 764.65182538 -922.86708499 721.78287439 C-922.80125512 683.69628114 -922.79969606 645.61019945 -922.85296631 607.52359009 C-922.912573 564.73140501 -922.93369277 521.93949625 -922.89135784 479.14728075 C-922.88694243 474.58571635 -922.88261137 470.02415187 -922.87830925 465.46258736 C-922.87721382 464.33941645 -922.87611839 463.21624554 -922.87498977 462.05903914 C-922.85909367 445.09762536 -922.87239703 428.13639538 -922.89969063 411.17500114 C-922.93052099 391.8898662 -922.91827101 372.60528974 -922.84926964 353.32024258 C-922.81184257 342.52664798 -922.80735445 331.73423354 -922.85037374 320.94065309 C-922.87577094 313.73098256 -922.85752779 306.52227393 -922.80377747 299.31276123 C-922.77435663 295.20440627 -922.76371919 291.09840535 -922.80600388 286.9901092 C-923.06197883 260.08918806 -923.06197883 260.08918806 -917.2122176 253.17064351 C-911.48828426 247.6664395 -905.21038141 245.74628754 -897.36583328 245.67114639 C-893.35455302 245.57439654 -889.40715455 245.20146771 -885.41506958 244.78210449 C-882.66050807 244.52683635 -879.90470832 244.28568241 -877.14910889 244.04190063 C-875.61234809 243.90387256 -874.07560547 243.76564191 -872.53887939 243.62722778 C-867.54949054 243.17906457 -862.559554 242.73719811 -857.56951904 242.29629517 C-856.71094693 242.22033442 -855.85237481 242.14437367 -854.96778536 242.06611109 C-846.81942158 241.3452924 -838.67086933 240.62664663 -830.52181053 239.9137249 C-820.23340159 239.01353393 -809.9460974 238.10243369 -799.6600498 237.17563903 C-792.35490487 236.51838394 -785.04866269 235.87431567 -777.74155772 235.23922837 C-773.41493234 234.86285945 -769.08891457 234.48151172 -764.76401901 234.08572006 C-694.27149259 227.65536021 -694.27149259 227.65536021 -674.64764404 238.99160767 C-673.18092269 239.76069372 -671.71052418 240.52280087 -670.23684692 241.2784729 C-666.48630239 243.22409182 -662.79119925 245.25599641 -659.10211182 247.31521606 C-655.28227425 249.42455452 -651.41407322 251.44141109 -647.54998779 253.46817017 C-640.0630477 257.41146031 -632.6324508 261.44795026 -625.23358154 265.55410767 C-625.23438217 264.95592224 -625.2351828 264.35773682 -625.23600769 263.74142456 C-625.22249051 260.9955959 -625.16391207 258.25244052 -625.10467529 255.50723267 C-625.10672974 254.56637817 -625.10878418 253.62552368 -625.11090088 252.65615845 C-624.94210969 246.65294941 -624.01441766 243.20580899 -619.88433838 238.77505493 C-615.25845768 234.49084446 -611.61515062 231.5821211 -605.22406006 230.9815979 C-604.17859512 230.88156967 -603.13313019 230.78154144 -602.0559845 230.67848206 C-600.35145363 230.52217064 -600.35145363 230.52217064 -598.61248779 230.36270142 C-597.44281967 230.25313614 -596.27315155 230.14357086 -595.06803894 230.03068542 C-592.58410133 229.7992411 -590.09996826 229.56988668 -587.61566162 229.34243774 C-583.84246108 228.99586765 -580.07025308 228.63970522 -576.29803467 228.28262329 C-573.88207335 228.05872918 -571.46605921 227.83540427 -569.04998779 227.61270142 C-567.37278404 227.45335365 -567.37278404 227.45335365 -565.66169739 227.29078674 C-564.58786301 227.19391068 -563.51402863 227.09703461 -562.40765381 226.9972229 C-561.47880875 226.91141464 -560.54996368 226.82560638 -559.5929718 226.73719788 C-554.80608179 226.47630747 -550.02630202 226.52000272 -545.23358154 226.55410767 C-545.24464306 225.69934216 -545.25570457 224.84457664 -545.26710129 223.96390915 C-545.53253572 203.13042547 -545.73089234 182.29723464 -545.85532761 161.46241379 C-545.91710952 151.386565 -546.00128066 141.31184737 -546.13885498 131.23672485 C-546.25876005 122.45137731 -546.33594923 113.66684917 -546.36264348 104.88070607 C-546.37824015 100.23136607 -546.41467653 95.58436935 -546.50234222 90.93578339 C-546.58433861 86.55193864 -546.60881819 82.17138114 -546.59087372 77.78684235 C-546.59415168 76.18559333 -546.61771444 74.58422448 -546.66404724 72.98364258 C-546.89677208 64.52280943 -546.0876997 58.04261399 -540.1484375 51.63009644 C-534.28977769 45.62261766 -527.57809733 45.42049763 -519.55648136 44.74876332 C-517.2090237 44.55204975 -514.86545313 44.32853206 -512.52104664 44.09844494 C-507.19317125 43.58254547 -501.86159914 43.11247787 -496.52944946 42.64318848 C-494.47459999 42.46020892 -492.41977238 42.27698374 -490.3649646 42.0935365 C-484.75847676 41.59375989 -479.15167479 41.09759129 -473.54480815 40.60208488 C-467.48156543 40.06563165 -461.41861677 39.52587273 -455.35562134 38.9866333 C-441.42611321 37.74850207 -427.49616192 36.51540597 -413.56610174 35.28350576 C-408.74041984 34.85674085 -403.91475684 34.42976283 -399.08910608 34.00264597 C-373.3590338 31.7252939 -347.62882798 29.44945963 -321.89813042 27.17918205 C-315.94923602 26.65427533 -310.00034326 26.1293501 -304.05145264 25.60440063 C-303.31248024 25.53919333 -302.57350785 25.47398602 -301.81214235 25.40680274 C-277.87709263 23.29469215 -253.94294402 21.17257924 -230.00929474 19.04466218 C-205.34886427 16.85216903 -180.68769034 14.66824907 -156.02550891 12.49553523 C-152.53296127 12.18784499 -149.04042142 11.88006658 -145.54788589 11.57223892 C-144.51707308 11.48139049 -144.51707308 11.48139049 -143.46543576 11.38870674 C-132.4698347 10.41940133 -121.47502669 9.44137431 -110.48049143 8.46006213 C-99.40169054 7.47144507 -88.3220243 6.49292489 -77.2415161 5.52361046 C-71.25443754 4.99959273 -65.26779683 4.47151992 -59.28211975 3.93170929 C-18.09069757 0.22271258 -18.09069757 0.22271258 0 0 Z M-14.19470978 27.0911932 C-15.19635474 27.17832083 -15.19635474 27.17832083 -16.21823496 27.26720861 C-18.44891616 27.46199151 -20.67918709 27.66112314 -22.90948486 27.86024475 C-24.52913932 28.00258449 -26.14881744 28.14465515 -27.76851702 28.28648049 C-32.21733726 28.67681432 -36.66581286 29.07095944 -41.11424184 29.46572387 C-45.91893785 29.89142948 -50.723945 30.31359557 -55.52891541 30.7361908 C-63.8763209 31.47082767 -72.22352635 32.20770343 -80.57060242 32.94607353 C-92.75116739 34.02353542 -104.93203927 35.0974948 -117.11298639 36.17062689 C-137.02464999 37.92491676 -156.93607631 39.68188493 -176.84735107 41.44058228 C-195.93285883 43.12633539 -215.01845238 44.81111054 -234.10418701 46.49429321 C-235.26579261 46.59673643 -236.42739821 46.69917964 -237.62420398 46.80472719 C-249.28806181 47.83335507 -260.95193385 48.86182174 -272.61580661 49.89028026 C-277.24058564 50.29807087 -281.86536393 50.70587002 -286.49014169 51.11367505 C-288.7834001 51.3158906 -291.07665872 51.51810364 -293.36991757 51.72031415 C-308.66646694 53.06912571 -323.96292459 54.4189723 -339.25930732 55.76967219 C-348.54172341 56.58928711 -357.82416677 57.40859289 -367.10662842 58.22769165 C-368.10328809 58.31563855 -369.09994776 58.40358545 -370.12680924 58.49419741 C-395.19226461 60.70580461 -420.25846376 62.90879361 -445.32562256 65.10101318 C-446.42988142 65.19758496 -447.53414028 65.29415673 -448.67186153 65.39365493 C-472.19216204 67.45026325 -495.71293475 69.50146444 -519.23358154 71.55410767 C-519.23358154 130.62410767 -519.23358154 189.69410767 -519.23358154 250.55410767 C-531.44358154 251.54410767 -543.65358154 252.53410767 -556.23358154 253.55410767 C-564.17366652 254.26640452 -572.11031886 254.98666643 -580.04608154 255.74160767 C-586.37795654 256.33973267 -592.70983154 256.93785767 -599.23358154 257.55410767 C-599.23358154 275.04410767 -599.23358154 292.53410767 -599.23358154 310.55410767 C-612.84809092 304.04282057 -626.36544174 297.52950292 -639.76335144 290.61284828 C-645.23274988 287.79608758 -650.71932217 285.01282164 -656.20214081 282.22230244 C-660.96808563 279.79431422 -665.72787542 277.35543253 -670.47674561 274.89419556 C-675.145495 272.47533871 -679.82865468 270.08675689 -684.52272034 267.71742821 C-686.28540762 266.82113002 -688.04277867 265.91428553 -689.79417419 264.99611855 C-692.24417663 263.71361934 -694.71101251 262.47096546 -697.18475342 261.23501587 C-697.88015228 260.85956635 -698.57555115 260.48411682 -699.29202271 260.09729004 C-710.64829023 254.57600124 -725.42110444 257.72875301 -737.60125732 258.82339478 C-739.17836776 258.96025781 -740.75552806 259.09654722 -742.33273315 259.23231506 C-746.56863601 259.59853444 -750.80381072 259.97261214 -755.03889322 260.34818339 C-759.4979777 260.74218396 -763.95771612 261.12864081 -768.41738892 261.51591492 C-776.85564724 262.2497939 -785.2933265 262.99011836 -793.73080337 263.73292214 C-804.23256578 264.65717055 -814.73500845 265.5735947 -825.23748779 266.48965454 C-828.93206183 266.8119186 -832.6266326 267.13422001 -836.32119751 267.45658875 C-837.21746097 267.53478853 -838.11372444 267.61298832 -839.0371474 267.6935578 C-844.32487045 268.15511961 -849.61246173 268.61815635 -854.89992929 269.08263576 C-858.20010819 269.37253099 -861.50032788 269.6619605 -864.80054855 269.95137978 C-866.31737713 270.08454832 -867.83418444 270.2179594 -869.35096741 270.35164642 C-871.44094457 270.53584687 -873.5309962 270.71918155 -875.62106323 270.90235901 C-876.78424135 271.00467803 -877.94741947 271.10699705 -879.14584541 271.21241665 C-884.83943184 271.68833957 -890.53696774 272.1159066 -896.23358154 272.55410767 C-896.23358154 532.26410767 -896.23358154 791.97410767 -896.23358154 1059.55410767 C-889.96358154 1062.85410767 -883.69358154 1066.15410767 -877.23358154 1069.55410767 C-874.07639979 1071.31559776 -870.93703161 1073.08115398 -867.81463623 1074.89956665 C-859.85746026 1079.47747212 -851.82334879 1083.89705755 -843.7336235 1088.23629665 C-838.90549537 1090.8327904 -834.11975808 1093.47425465 -829.39471436 1096.25454712 C-797.87498169 1114.71342507 -772.19805014 1116.18601248 -736.68968296 1111.22048378 C-726.94591519 1109.85943692 -717.21445002 1108.82600772 -707.40887451 1108.02603149 C-706.71122207 1107.96887289 -706.01356963 1107.91171429 -705.2947762 1107.85282362 C-702.47568499 1107.62275358 -699.65645277 1107.39457436 -696.83695042 1107.16959661 C-689.87990343 1106.61396989 -682.92795218 1106.00456812 -675.97608876 1105.38788927 C-673.22289816 1105.14381549 -670.46955261 1104.90151572 -667.716205 1104.65922052 C-665.64375647 1104.47683977 -663.57132826 1104.29422927 -661.49890137 1104.11160278 C-654.3149558 1103.47886118 -647.13069065 1102.84975711 -639.94647217 1102.22012329 C-626.04187705 1101.00149213 -612.13775112 1099.77760602 -598.23358154 1098.55410767 C-598.23358154 1081.39410767 -598.23358154 1064.23410767 -598.23358154 1046.55410767 C-589.29264404 1050.91629517 -589.29264404 1050.91629517 -580.17108154 1055.36660767 C-575.42988562 1057.67928376 -570.68861437 1059.99180517 -565.94728088 1062.30419922 C-561.26442948 1064.58808735 -556.5816384 1066.87209871 -551.89910889 1069.15664673 C-551.04719467 1069.57223846 -550.19528046 1069.9878302 -549.31755066 1070.41601562 C-547.63100986 1071.23881281 -545.94453667 1072.06174859 -544.25813293 1072.88482666 C-540.16800358 1074.88043326 -536.07602315 1076.87205914 -531.97991943 1078.8553772 C-525.34685119 1082.06939769 -518.71822029 1085.28319496 -512.16159058 1088.65113831 C-510.29801424 1089.60719326 -508.4296209 1090.55304639 -506.55926514 1091.49575806 C-504.35862854 1092.60915499 -502.16758499 1093.7418666 -499.9899292 1094.89956665 C-487.95715 1100.92789945 -474.93171815 1098.43415757 -461.92523193 1097.28482056 C-460.33032756 1097.1480361 -458.73538092 1097.01174372 -457.14039612 1096.87590027 C-452.84654142 1096.50884088 -448.55329699 1096.13505026 -444.26013112 1095.76003194 C-439.74271878 1095.36667255 -435.22474891 1094.97982399 -430.70683289 1094.59230042 C-422.15290116 1093.85764437 -413.59945033 1093.11754222 -405.04617447 1092.3752932 C-392.52160723 1091.28865385 -379.99634902 1090.21003218 -367.47106838 1089.13165188 C-365.61272606 1088.9716452 -363.75438389 1088.81163679 -361.89604187 1088.65162659 C-360.53353897 1088.53432691 -360.53353897 1088.53432691 -359.14351076 1088.41465753 C-353.78580952 1087.95321899 -348.42825221 1087.49015266 -343.07082188 1087.02557957 C-339.72363373 1086.73543629 -336.37637795 1086.44607818 -333.02911186 1086.15683556 C-331.49173156 1086.02378843 -329.95438218 1085.89038341 -328.41706848 1085.75656891 C-326.29670806 1085.57203379 -324.17623709 1085.38881761 -322.05574036 1085.20585632 C-320.28633638 1085.05237779 -320.28633638 1085.05237779 -318.48118687 1084.89579868 C-312.40187042 1084.40675894 -306.31703696 1083.9886402 -300.23358154 1083.55410767 C-300.23358154 1025.47410767 -300.23358154 967.39410767 -300.23358154 907.55410767 C-295.28358154 907.22410767 -290.33358154 906.89410767 -285.23358154 906.55410767 C-281.61808312 906.23409598 -278.00854287 905.90133291 -274.39764404 905.53848267 C-272.37250457 905.33976207 -270.34735775 905.14111642 -268.32220459 904.9425354 C-267.27140717 904.83867523 -266.22060974 904.73481506 -265.13796997 904.62780762 C-244.74337097 902.61470949 -224.33895116 900.75184577 -203.92108154 898.99160767 C-181.6657123 897.06965177 -159.44532896 894.92432675 -137.23358154 892.55410767 C-130.96358154 891.89410767 -124.69358154 891.23410767 -118.23358154 890.55410767 C-118.23358154 924.87410767 -118.23358154 959.19410767 -118.23358154 994.55410767 C-111.96358154 997.85410767 -105.69358154 1001.15410767 -99.23358154 1004.55410767 C-93.70695496 1007.47848511 -93.70695496 1007.47848511 -91.44689941 1008.67628479 C-82.26789929 1013.53859524 -73.05552116 1018.33344892 -63.81657314 1023.08086014 C-58.72788957 1025.6979203 -53.65320383 1028.33670499 -48.60345459 1031.02822876 C-43.64817133 1033.66827013 -38.66448921 1036.24564365 -33.65693855 1038.78505707 C-31.78334756 1039.74787832 -29.92016064 1040.7312922 -28.0694561 1041.73740387 C-13.72120821 1049.51147594 -3.07892527 1050.25833429 12.94130516 1048.04663086 C19.39315055 1047.21588854 25.87262982 1046.71097542 32.35322821 1046.15919685 C36.52138976 1045.79899014 40.6871324 1045.412731 44.85308838 1045.02798462 C46.58244533 1044.86882329 48.31180528 1044.70969453 50.04116821 1044.55059814 C50.89618423 1044.47185959 51.75120026 1044.39312103 52.63212585 1044.31199646 C56.71151688 1043.93668828 60.79110021 1043.56349232 64.8706665 1043.19009399 C76.71110647 1042.10516267 88.55124515 1041.01694522 100.39141846 1039.92910767 C126.91516846 1037.49535767 153.43891846 1035.06160767 180.76641846 1032.55410767 C180.76641846 927.28410767 180.76641846 822.01410767 180.76641846 713.55410767 C187.03641846 713.22410767 193.30641846 712.89410767 199.76641846 712.55410767 C206.49194228 712.00255346 206.49194228 712.00255346 213.21173096 711.40029907 C218.86438026 710.87267183 224.51828856 710.3597153 230.17266846 709.85098267 C231.27328613 709.75189606 232.37390381 709.65280945 233.50787354 709.55072021 C243.58091493 708.64944533 253.65753288 707.79285246 263.73516846 706.94473267 C264.58695175 706.87303989 265.43873505 706.80134712 266.31632996 706.72748184 C274.09501208 706.07313148 281.87385888 705.42075102 289.65289307 704.77059937 C325.36525238 701.7849114 361.06369531 698.65869229 396.76641846 695.55410767 C396.76641846 635.82410767 396.76641846 576.09410767 396.76641846 514.55410767 C385.73973019 508.75058752 374.73884235 502.96403837 363.59454346 497.40176392 C362.33152616 496.76991575 361.06856805 496.13794926 359.80566406 495.50587463 C357.19166385 494.19814904 354.57697076 492.89182312 351.96173096 491.58657837 C348.68565573 489.95137841 345.41139997 488.31257218 342.13761139 486.67280006 C318.57356926 474.86270318 318.57356926 474.86270318 294.76641846 463.55410767 C293.81098192 463.03555993 293.81098192 463.03555993 292.83624363 462.50653648 C286.63067473 459.34779823 281.93793096 459.24166311 275.10601807 460.01797485 C274.08057892 460.11492645 273.05513977 460.21187805 271.99862671 460.31176758 C268.6359844 460.63538211 265.27789228 460.99288847 261.91876221 461.35098267 C259.57770703 461.58300672 257.23643928 461.81289512 254.89497375 462.04074097 C248.75250406 462.64422484 242.61334177 463.27657284 236.47442627 463.91506958 C230.20175853 464.5622786 223.92638391 465.18201887 217.65118408 465.80410767 C205.35342621 467.02731176 193.059376 468.28356674 180.76641846 469.55410767 C180.76641846 455.03410767 180.76641846 440.51410767 180.76641846 425.55410767 C184.72641846 425.55410767 188.68641846 425.55410767 192.76641846 425.55410767 C194.91726911 425.4550939 197.06740799 425.33024249 199.21368408 425.15859985 C200.89373535 425.02758377 200.89373535 425.02758377 202.60772705 424.8939209 C204.37237305 424.74891647 204.37237305 424.74891647 206.17266846 424.60098267 C207.43482178 424.50084869 208.6969751 424.40071472 209.99737549 424.29754639 C213.38656809 424.02821534 216.77522474 423.7526426 220.16378784 423.47551727 C222.28243353 423.30280209 224.40122586 423.13201416 226.52008057 422.96188354 C245.88314642 421.40701413 265.23344493 419.73800135 284.57501221 417.93399048 C296.93169282 416.78551208 309.2947589 415.79580135 321.6703186 414.87530518 C335.38921282 413.8515747 349.0858062 412.6424396 362.78317261 411.36425781 C374.06105063 410.31346237 385.34148708 409.3308001 396.63360596 408.44473267 C397.78904404 408.35392929 398.94448212 408.26312592 400.13493347 408.16957092 C405.80167277 407.72595971 411.46887935 407.28950377 417.13677979 406.86099243 C419.18390499 406.70278644 421.23102444 406.54450586 423.27813721 406.38613892 C424.22691742 406.3165094 425.17569763 406.24687988 426.15322876 406.17514038 C427.44421982 406.07426117 427.44421982 406.07426117 428.7612915 405.97134399 C429.51460251 405.91456985 430.26791351 405.85779572 431.04405212 405.79930115 C432.79473873 405.72591769 432.79473873 405.72591769 433.76641846 404.55410767 C433.86403186 402.22643753 433.89639611 399.92848748 433.88667297 397.60035706 C433.8875274 396.86446321 433.88838182 396.12856936 433.88926214 395.37037569 C433.89091913 392.8859412 433.88539202 390.40157312 433.87994385 387.91714478 C433.879662 386.14362083 433.87981967 384.37009676 433.88038635 382.59657288 C433.88067441 377.7661975 433.87477636 372.93584673 433.8678124 368.10547709 C433.86158022 363.0632545 433.86097517 358.0210314 433.85978699 352.97880554 C433.85667327 343.4236054 433.84845933 333.86841664 433.8384375 324.31322151 C433.82727762 313.43795333 433.82176623 302.56268462 433.81674206 291.68741214 C433.80627675 269.30963766 433.78867653 246.9318733 433.76641846 224.55410767 C415.56431642 214.94948961 397.32580664 205.42005308 378.98672485 196.07916737 C373.84840092 193.46065691 368.71945809 190.82646518 363.60821533 188.15542603 C358.59936245 185.53861407 353.57051928 182.9646475 348.52563477 180.41803551 C346.63018395 179.45237667 344.74202216 178.47224935 342.86218262 177.47654152 C340.22140456 176.08108897 337.55791677 174.74255534 334.88360596 173.41275024 C334.14019958 173.00408218 333.39679321 172.59541412 332.63085938 172.17436218 C324.0611203 168.0613167 314.92723659 169.72578206 305.76641846 170.55410767 C304.16532136 170.68174336 302.56404301 170.80712731 300.96258545 170.93015766 C295.92155921 171.32475858 290.88522561 171.76718895 285.84844971 172.21231079 C283.93923244 172.37859088 282.02999094 172.54459294 280.12072754 172.71034241 C275.00170824 173.15561578 269.88305649 173.60498299 264.76448441 174.05536461 C260.47923079 174.43201393 256.19379351 174.80654993 251.90835476 175.18108606 C241.80935185 176.0637242 231.71064095 176.94964681 221.61212158 177.83779907 C211.19718957 178.75373195 200.78182171 179.66457988 190.36622334 180.57290125 C181.40002744 181.35497047 172.43408271 182.13987173 163.46834087 182.92712927 C158.12265386 183.39650828 152.77688279 183.86486879 147.43087769 184.33061218 C142.42030817 184.76727903 137.41006222 185.20748567 132.4000473 185.65046883 C130.55986302 185.81258347 128.71956779 185.9734441 126.87915802 186.13297844 C124.37390066 186.35034567 121.86907907 186.57218435 119.36431885 186.79519653 C118.63117368 186.85774769 117.89802851 186.92029885 117.14266682 186.9847455 C114.17151804 187.25343023 111.6100037 187.60624592 108.76641846 188.55410767 C108.76641846 152.91410767 108.76641846 117.27410767 108.76641846 80.55410767 C97.03079346 74.67598267 85.29516846 68.79785767 73.20391846 62.74160767 C69.54999023 60.91009155 65.89606201 59.07857544 62.13140869 57.19155884 C59.15460111 55.7010764 56.17761437 54.21096897 53.20001221 52.72207642 C52.41350218 52.32877136 51.62699215 51.93546631 50.81664848 51.53024292 C40.12645928 46.18825648 29.41169433 40.91046364 18.60246277 35.81233215 C13.0592829 33.19729936 7.62769478 30.45372187 2.26641846 27.47988892 C-2.90738065 25.56396643 -8.78644593 26.61392801 -14.19470978 27.0911932 Z " fill="#FDFDFD" transform="translate(1030.2335815429688,83.44589233398438)"/>
</svg>
